<svg width="95" height="172" xmlns="http://www.w3.org/2000/svg" xmlns:xlink="http://www.w3.org/1999/xlink">
    <defs>
        <path d="m34.91.112.002 4.621.002 2.378c0 1.424.002 2.847.003 4.27l.003 4.73.001 2.027.002 2.729.001 1.757v.405l.003 4.108c1.392-.031 2.784-.05 4.177-.058l-.001-4.522-.001-4.089v-2.166l.831-.898.555 1.542.403 1.111c.428 1.165.856 2.332 1.283 3.5l.378 1.005 1.634 4.54a257.367 257.367 0 0 1 4.503.105l-1.656-4.557-.654-1.856-.98-2.675-1.66-5.042c.68-.726 1.361-1.449 2.042-2.165l.606-.6v-1.73l.002-1.459.001-2.377.001-.92.002-3.7C44.99.061 43.583.02 42.18.002l-.001 4.63v3.575l-.279.295c-.857.922-1.714 1.851-2.57 2.787l-.228.219V7.014L39.1 4.63V0c-1.398.015-2.794.052-4.19.112zm-5.7.367a139.983 139.983 0 0 0-7.127.8l.009 4.524c0 .775.003 1.551.004 2.327l.007 4.18.012 6.611.008 4.391.008 4.417a277.516 277.516 0 0 1 7.113-.405c1.392-.061 2.783-.111 4.175-.15l-.004-4.507c0-1.493-.002-2.987-.004-4.48l-.005-6.747-.004-4.265-.001-2.375-.004-4.615C32 .261 30.605.36 29.21.48zm-2.896 18.096-.01-6.677c-.003-1.406-.004-2.813-.006-4.22l-.004-2.35c.974-.095 1.948-.182 2.922-.259l.003 2.363.005 4.241.009 6.711.005 4.457c-.972.05-1.945.105-2.917.167l-.007-4.433zM50.222 4.74l-.003 2.583-.005 4.116-.001 1.83-.002.995-.005 4.52-.002 1.911-.002 2.233-.005 4.332c1.392.053 2.783.117 4.174.191l.006-4.302.004-2.217.002-1.898.007-4.49.001-.988.003-1.817.006-4.088.004-2.565.006-4.357a136.445 136.445 0 0 0-4.183-.375l-.005 4.386zm19.429.317-.005 2.708-.008 4.316L69.635 14l-.002 1.044-.009 4.738c0 .668-.002 1.335-.003 2.003l-.004 2.34-.009 4.542a433.86 433.86 0 0 1 5.712.633A590.51 590.51 0 0 1 81 30v.001-12.828c-1.379-.29-2.759-.57-4.14-.839-.508-.098-1.016-.196-1.524-.291a927.14 927.14 0 0 0 1.52 3.966v.899l-.002 1.932-.003 2.26a318.368 318.368 0 0 0-3.052-.43l.004-2.297.002-1.964.007-4.647.001-1.024.003-1.881.006-4.233.003-2.656a204.666 204.666 0 0 1 3.043.73c0 .87 0 1.742-.002 2.613 1.38.323 2.758.66 4.134 1.01V3.441c-1.374-.41-2.75-.805-4.127-1.181a160.122 160.122 0 0 0-3.04-.801h-.001c-1.39-.353-2.78-.686-4.173-.999l-.008 4.597zM7.742 1.314c-1.206.301-2.412.617-3.615.946C2.749 2.636 1.374 3.03 0 3.44V30c1.383-.178 2.768-.351 4.153-.519 1.21-.146 2.42-.288 3.63-.424.601-.068 1.203-.135 1.804-.2l-.007-4.505a357.592 357.592 0 0 0-5.431.746l-.003-2.259-.001-1.932-.001-.736a570.684 570.684 0 0 0 3.52-4.496l.1-.129-.002-.916-.003-1.886c0-.694-.002-1.387-.003-2.08a576.882 576.882 0 0 1-3.567 4.653l-.05.036v-.027l-.001-1.851-.004-4.165-.003-2.613c1.205-.3 2.411-.587 3.618-.861.6-.136 1.2-.27 1.8-.399L9.54.877c-.6.141-1.2.288-1.799.437zm48.172 4.139-.004 2.344-.007 4.21-.01 6.659-.008 4.422-.007 4.448c1.391.082 2.781.175 4.17.278l.01-4.403.007-4.377.011-5.958c.55 2.05 1.098 4.092 1.647 6.127.407 1.496.815 2.986 1.222 4.473l.997 3.669.2.799c1.321.115 2.643.238 3.964.37l.007-4.284.008-4.259.012-6.412.008-4.054c0-.752.003-1.504.004-2.257l.008-4.387a156.33 156.33 0 0 0-4.162-.786l-.009 4.455c0 .764-.003 1.528-.004 2.292l-.008 4.116-.005 2.788-.798-2.897-1.123-4.289-.648-2.402-1.248-4.682A139.598 139.598 0 0 0 55.92.898l-.007 4.555zm-44.87-2.215.008 4.354.004 2.24.007 4.023.012 6.365.007 4.226.008 4.252a349.66 349.66 0 0 1 4.188-.412c1.781-.164 3.564-.314 5.347-.448l-.008-4.399c-1.784.156-3.566.33-5.347.524l-.009-4.298-.012-6.473-.008-4.09-.005-2.278-.008-4.427c-1.396.26-2.79.542-4.183.841z" id="a"/>
        <path d="m22.648 2.462-2.3 4.717S14.55 8.1 8.804 9.577C1.424 11.474 0 12.513 0 12.513v82.46C0 149.536 44.5 166 44.5 166S89 149.536 89 94.973v-82.46s-1.424-1.04-8.804-2.936C74.449 8.1 68.652 7.179 68.652 7.179l-2.3-4.717S57.534 0 44.5 0C31.465 0 22.648 2.462 22.648 2.462" id="c"/>
        <path d="m22.648 2.462-2.3 4.717S14.55 8.1 8.804 9.577C1.424 11.474 0 12.513 0 12.513v82.46C0 149.536 44.5 166 44.5 166S89 149.536 89 94.973v-82.46s-1.424-1.04-8.804-2.936C74.449 8.1 68.652 7.179 68.652 7.179l-2.3-4.717S57.534 0 44.5 0C31.465 0 22.648 2.462 22.648 2.462" id="e"/>
        <path d="m22.648 2.462-2.3 4.717S14.55 8.1 8.804 9.577C1.424 11.474 0 12.513 0 12.513v82.46C0 149.536 44.5 166 44.5 166S89 149.536 89 94.973v-82.46s-1.424-1.04-8.804-2.936C74.449 8.1 68.652 7.179 68.652 7.179l-2.3-4.717S57.534 0 44.5 0C31.465 0 22.648 2.462 22.648 2.462" id="g"/>
        <path d="m22.648 2.462-2.3 4.717S14.55 8.1 8.804 9.577C1.424 11.474 0 12.513 0 12.513v82.46C0 149.536 44.5 166 44.5 166S89 149.536 89 94.973v-82.46s-1.424-1.04-8.804-2.936C74.449 8.1 68.652 7.179 68.652 7.179l-2.3-4.717S57.534 0 44.5 0C31.465 0 22.648 2.462 22.648 2.462" id="i"/>
        <path d="m22.648 2.462-2.3 4.717S14.55 8.1 8.804 9.577C1.424 11.474 0 12.513 0 12.513v82.46C0 149.536 44.5 166 44.5 166S89 149.536 89 94.973v-82.46s-1.424-1.04-8.804-2.936C74.449 8.1 68.652 7.179 68.652 7.179l-2.3-4.717S57.534 0 44.5 0C31.465 0 22.648 2.462 22.648 2.462" id="k"/>
        <path d="m22.648 2.462-2.3 4.717S14.55 8.1 8.804 9.577C1.424 11.474 0 12.513 0 12.513v82.46C0 149.536 44.5 166 44.5 166S89 149.536 89 94.973v-82.46s-1.424-1.04-8.804-2.936C74.449 8.1 68.652 7.179 68.652 7.179l-2.3-4.717S57.534 0 44.5 0C31.465 0 22.648 2.462 22.648 2.462" id="m"/>
        <path d="m22.648 2.462-2.3 4.717S14.55 8.1 8.804 9.577C1.424 11.474 0 12.513 0 12.513v82.46C0 149.536 44.5 166 44.5 166S89 149.536 89 94.973v-82.46s-1.424-1.04-8.804-2.936C74.449 8.1 68.652 7.179 68.652 7.179l-2.3-4.717S57.534 0 44.5 0C31.465 0 22.648 2.462 22.648 2.462" id="o"/>
        <path d="m22.648 2.462-2.3 4.717S14.55 8.1 8.804 9.577C1.424 11.474 0 12.513 0 12.513v82.46C0 149.536 44.5 166 44.5 166S89 149.536 89 94.973v-82.46s-1.424-1.04-8.804-2.936C74.449 8.1 68.652 7.179 68.652 7.179l-2.3-4.717S57.534 0 44.5 0C31.465 0 22.648 2.462 22.648 2.462" id="q"/>
        <path d="m22.648 2.462-2.3 4.717S14.55 8.1 8.804 9.577C1.424 11.474 0 12.513 0 12.513v82.46C0 149.536 44.5 166 44.5 166S89 149.536 89 94.973v-82.46s-1.424-1.04-8.804-2.936C74.449 8.1 68.652 7.179 68.652 7.179l-2.3-4.717S57.534 0 44.5 0C31.465 0 22.648 2.462 22.648 2.462" id="s"/>
        <path d="M1.777 6.41C-1.847 12.758.608 19.884 4.35 21.441c3.742 1.557 11.437-.007 14.165-6.367 2.727-6.359 1.503-9.98-2.063-13.035C15.339 1.087 13.243 0 10.795 0 7.932 0 4.589 1.486 1.777 6.41" id="u"/>
        <path d="M1.777 6.41C-1.847 12.758.608 19.884 4.35 21.441c3.742 1.557 11.437-.007 14.165-6.367 2.727-6.359 1.503-9.98-2.063-13.035C15.339 1.087 13.243 0 10.795 0 7.932 0 4.589 1.486 1.777 6.41" id="w"/>
        <path d="M1.777 6.41C-1.847 12.758.608 19.884 4.35 21.441c3.742 1.557 11.437-.007 14.165-6.367 2.727-6.359 1.503-9.98-2.063-13.035C15.339 1.087 13.243 0 10.795 0 7.932 0 4.589 1.486 1.777 6.41" id="y"/>
        <path d="M.97 9.974c2.015 3.776 5.171 2.867 7.608 8.71 2.438 5.844 2.099 9.58 2.099 9.58s.068-6.386-7.176-10.191C10.137 26.783 7.997 33.168 6.954 39c2.827-3.266 3.52-4.824 8.327-5.844 2.578-.546 3.46-.307 4.496-.067.895.207 1.905.414 4.223.113-2.405-1.339-10.998-3.855-6.485-12.48.84 3.58 3.212 4.182 3.859 4.281-1.783-2.38-1.389-2.565-1.186-4.739.203-2.174.78-2.802 1.592-5.18.813-2.379.745-1.36.406-3.805-.406 1.562-1.625 4.892-3.791 5.843.745-1.155 1.76-4.485.813-6.998-2.776.883-9.44 2.461-12.35.454 1.422 0 2.33-.183 4.903-1.27-3.047-1.426-5.078-2.853-6.703-7.473-.553 1.158-.781 2.799-.542 4.96C2.946 4.633 2.566 2.573 2.215 0 .135 2.269-.884 6.498.97 9.974" id="A"/>
        <path d="m22.648 2.462-2.3 4.717S14.55 8.1 8.804 9.577C1.424 11.474 0 12.513 0 12.513v82.46C0 149.536 44.5 166 44.5 166S89 149.536 89 94.973v-82.46s-1.424-1.04-8.804-2.936C74.449 8.1 68.652 7.179 68.652 7.179l-2.3-4.717S57.534 0 44.5 0C31.465 0 22.648 2.462 22.648 2.462" id="C"/>
        <path d="m22.648 2.462-2.3 4.717S14.55 8.1 8.804 9.577C1.424 11.474 0 12.513 0 12.513v82.46C0 149.536 44.5 166 44.5 166S89 149.536 89 94.973v-82.46s-1.424-1.04-8.804-2.936C74.449 8.1 68.652 7.179 68.652 7.179l-2.3-4.717S57.534 0 44.5 0C31.465 0 22.648 2.462 22.648 2.462" id="E"/>
        <path d="m22.648 2.462-2.3 4.717S14.55 8.1 8.804 9.577C1.424 11.474 0 12.513 0 12.513v82.46C0 149.536 44.5 166 44.5 166S89 149.536 89 94.973v-82.46s-1.424-1.04-8.804-2.936C74.449 8.1 68.652 7.179 68.652 7.179l-2.3-4.717S57.534 0 44.5 0C31.465 0 22.648 2.462 22.648 2.462" id="G"/>
        <path d="m22.648 2.462-2.3 4.717S14.55 8.1 8.804 9.577C1.424 11.474 0 12.513 0 12.513v82.46C0 149.536 44.5 166 44.5 166S89 149.536 89 94.973v-82.46s-1.424-1.04-8.804-2.936C74.449 8.1 68.652 7.179 68.652 7.179l-2.3-4.717S57.534 0 44.5 0C31.465 0 22.648 2.462 22.648 2.462" id="I"/>
        <path d="m22.648 2.462-2.3 4.717S14.55 8.1 8.804 9.577C1.424 11.474 0 12.513 0 12.513v82.46C0 149.536 44.5 166 44.5 166S89 149.536 89 94.973v-82.46s-1.424-1.04-8.804-2.936C74.449 8.1 68.652 7.179 68.652 7.179l-2.3-4.717S57.534 0 44.5 0C31.465 0 22.648 2.462 22.648 2.462" id="K"/>
        <path d="M1.777 6.41C-1.847 12.758.608 19.884 4.35 21.441c3.742 1.557 11.437-.007 14.165-6.367 2.727-6.359 1.503-9.98-2.063-13.035C15.339 1.087 13.243 0 10.795 0 7.932 0 4.589 1.486 1.777 6.41" id="M"/>
        <path d="M1.777 6.41C-1.847 12.758.608 19.884 4.35 21.441c3.742 1.557 11.437-.007 14.165-6.367 2.727-6.359 1.503-9.98-2.063-13.035C15.339 1.087 13.243 0 10.795 0 7.932 0 4.589 1.486 1.777 6.41" id="O"/>
        <path d="M1.777 6.41C-1.847 12.758.608 19.884 4.35 21.441c3.742 1.557 11.437-.007 14.165-6.367 2.727-6.359 1.503-9.98-2.063-13.035C15.339 1.087 13.243 0 10.795 0 7.932 0 4.589 1.486 1.777 6.41" id="Q"/>
        <path d="m22.648 2.462-2.3 4.717S14.55 8.1 8.804 9.577C1.424 11.474 0 12.513 0 12.513v82.46C0 149.536 44.5 166 44.5 166S89 149.536 89 94.973v-82.46s-1.424-1.04-8.804-2.936C74.449 8.1 68.652 7.179 68.652 7.179l-2.3-4.717S57.534 0 44.5 0C31.465 0 22.648 2.462 22.648 2.462" id="S"/>
        <path d="M.97 9.974c2.015 3.776 5.171 2.867 7.608 8.71 2.438 5.844 2.099 9.58 2.099 9.58s.068-6.386-7.176-10.191C10.137 26.783 7.997 33.168 6.954 39c2.827-3.266 3.52-4.824 8.327-5.844 2.578-.546 3.46-.307 4.496-.067.895.207 1.905.414 4.223.113-2.405-1.339-10.998-3.855-6.485-12.48.84 3.58 3.212 4.182 3.859 4.281-1.783-2.38-1.389-2.565-1.186-4.739.203-2.174.78-2.802 1.592-5.18.813-2.379.745-1.36.406-3.805-.406 1.562-1.625 4.892-3.791 5.843.745-1.155 1.76-4.485.813-6.998-2.776.883-9.44 2.461-12.35.454 1.422 0 2.33-.183 4.903-1.27-3.047-1.426-5.078-2.853-6.703-7.473-.553 1.158-.781 2.799-.542 4.96C2.946 4.633 2.566 2.573 2.215 0 .135 2.269-.884 6.498.97 9.974" id="U"/>
        <path d="M.97 9.974c2.015 3.776 5.171 2.867 7.608 8.71 2.438 5.844 2.099 9.58 2.099 9.58s.068-6.386-7.176-10.191C10.137 26.783 7.997 33.168 6.954 39c2.827-3.266 3.52-4.824 8.327-5.844 2.578-.546 3.46-.307 4.496-.067.895.207 1.905.414 4.223.113-2.405-1.339-10.998-3.855-6.485-12.48.84 3.58 3.212 4.182 3.859 4.281-1.783-2.38-1.389-2.565-1.186-4.739.203-2.174.78-2.802 1.592-5.18.813-2.379.745-1.36.406-3.805-.406 1.562-1.625 4.892-3.791 5.843.745-1.155 1.76-4.485.813-6.998-2.776.883-9.44 2.461-12.35.454 1.422 0 2.33-.183 4.903-1.27-3.047-1.426-5.078-2.853-6.703-7.473-.553 1.158-.781 2.799-.542 4.96C2.946 4.633 2.566 2.573 2.215 0 .135 2.269-.884 6.498.97 9.974" id="W"/>
        <path d="M.97 9.974c2.015 3.776 5.171 2.867 7.608 8.71 2.438 5.844 2.099 9.58 2.099 9.58s.068-6.386-7.176-10.191C10.137 26.783 7.997 33.168 6.954 39c2.827-3.266 3.52-4.824 8.327-5.844 2.578-.546 3.46-.307 4.496-.067.895.207 1.905.414 4.223.113-2.405-1.339-10.998-3.855-6.485-12.48.84 3.58 3.212 4.182 3.859 4.281-1.783-2.38-1.389-2.565-1.186-4.739.203-2.174.78-2.802 1.592-5.18.813-2.379.745-1.36.406-3.805-.406 1.562-1.625 4.892-3.791 5.843.745-1.155 1.76-4.485.813-6.998-2.776.883-9.44 2.461-12.35.454 1.422 0 2.33-.183 4.903-1.27-3.047-1.426-5.078-2.853-6.703-7.473-.553 1.158-.781 2.799-.542 4.96C2.946 4.633 2.566 2.573 2.215 0 .135 2.269-.884 6.498.97 9.974" id="Y"/>
        <path d="M.97 9.974c2.015 3.776 5.171 2.867 7.608 8.71 2.438 5.844 2.099 9.58 2.099 9.58s.068-6.386-7.176-10.191C10.137 26.783 7.997 33.168 6.954 39c2.827-3.266 3.52-4.824 8.327-5.844 2.578-.546 3.46-.307 4.496-.067.895.207 1.905.414 4.223.113-2.405-1.339-10.998-3.855-6.485-12.48.84 3.58 3.212 4.182 3.859 4.281-1.783-2.38-1.389-2.565-1.186-4.739.203-2.174.78-2.802 1.592-5.18.813-2.379.745-1.36.406-3.805-.406 1.562-1.625 4.892-3.791 5.843.745-1.155 1.76-4.485.813-6.998-2.776.883-9.44 2.461-12.35.454 1.422 0 2.33-.183 4.903-1.27-3.047-1.426-5.078-2.853-6.703-7.473-.553 1.158-.781 2.799-.542 4.96C2.946 4.633 2.566 2.573 2.215 0 .135 2.269-.884 6.498.97 9.974z" id="aa"/>
        <path d="m22.648 2.462-2.3 4.717S14.55 8.1 8.804 9.577C1.424 11.474 0 12.513 0 12.513v82.46C0 149.536 44.5 166 44.5 166S89 149.536 89 94.973v-82.46s-1.424-1.04-8.804-2.936C74.449 8.1 68.652 7.179 68.652 7.179l-2.3-4.717S57.534 0 44.5 0C31.465 0 22.648 2.462 22.648 2.462" id="ac"/>
        <path d="M1.018 22.12c-2.421 9.89 0 16.656 1.849 19.88-.548-8.418.357-9.477 2.466-20.15C7.456 11.106 4.032 4.479 1.77 0c1.027 5.91 1.438 13.164-.753 22.12" id="ae"/>
        <path d="M1.018 22.12c-2.421 9.89 0 16.656 1.849 19.88-.548-8.418.357-9.477 2.466-20.15C7.456 11.106 4.032 4.479 1.77 0c1.027 5.91 1.438 13.164-.753 22.12" id="ag"/>
        <path d="m22.648 2.462-2.3 4.717S14.55 8.1 8.804 9.577C1.424 11.474 0 12.513 0 12.513v82.46C0 149.536 44.5 166 44.5 166S89 149.536 89 94.973v-82.46s-1.424-1.04-8.804-2.936C74.449 8.1 68.652 7.179 68.652 7.179l-2.3-4.717S57.534 0 44.5 0C31.465 0 22.648 2.462 22.648 2.462" id="ai"/>
        <path d="m22.648 2.462-2.3 4.717S14.55 8.1 8.804 9.577C1.424 11.474 0 12.513 0 12.513v82.46C0 149.536 44.5 166 44.5 166S89 149.536 89 94.973v-82.46s-1.424-1.04-8.804-2.936C74.449 8.1 68.652 7.179 68.652 7.179l-2.3-4.717S57.534 0 44.5 0C31.465 0 22.648 2.462 22.648 2.462" id="ak"/>
        <path d="M.54 12.676C-.958 18.4.986 22.206 2.418 24c-.624-4.801.007-5.432 1.256-11.595C4.933 6.198 2.262 2.5.496 0c.907 3.353 1.4 7.492.044 12.676" id="am"/>
        <path d="m22.648 2.462-2.3 4.717S14.55 8.1 8.804 9.577C1.424 11.474 0 12.513 0 12.513v82.46C0 149.536 44.5 166 44.5 166S89 149.536 89 94.973v-82.46s-1.424-1.04-8.804-2.936C74.449 8.1 68.652 7.179 68.652 7.179l-2.3-4.717S57.534 0 44.5 0C31.465 0 22.648 2.462 22.648 2.462" id="ao"/>
        <path d="m22.648 2.462-2.3 4.717S14.55 8.1 8.804 9.577C1.424 11.474 0 12.513 0 12.513v82.46C0 149.536 44.5 166 44.5 166S89 149.536 89 94.973v-82.46s-1.424-1.04-8.804-2.936C74.449 8.1 68.652 7.179 68.652 7.179l-2.3-4.717S57.534 0 44.5 0C31.465 0 22.648 2.462 22.648 2.462" id="aq"/>
        <path d="M.592 10.619C-.254 15.5 1.34 18.578 2.47 20c-.67-3.988-.235-4.552.41-9.787C3.529 4.94 1.406 1.994 0 0c.813 2.759 1.358 6.198.592 10.619" id="as"/>
        <path d="m22.648 2.462-2.3 4.717S14.55 8.1 8.804 9.577C1.424 11.474 0 12.513 0 12.513v82.46C0 149.536 44.5 166 44.5 166S89 149.536 89 94.973v-82.46s-1.424-1.04-8.804-2.936C74.449 8.1 68.652 7.179 68.652 7.179l-2.3-4.717S57.534 0 44.5 0C31.465 0 22.648 2.462 22.648 2.462" id="au"/>
        <path d="m22.648 2.462-2.3 4.717S14.55 8.1 8.804 9.577C1.424 11.474 0 12.513 0 12.513v82.46C0 149.536 44.5 166 44.5 166S89 149.536 89 94.973v-82.46s-1.424-1.04-8.804-2.936C74.449 8.1 68.652 7.179 68.652 7.179l-2.3-4.717S57.534 0 44.5 0C31.465 0 22.648 2.462 22.648 2.462" id="aw"/>
        <path d="M.326 12.405c1.25 6.163 1.88 6.794 1.256 11.595 1.433-1.794 3.375-5.6 1.878-11.324C2.104 7.492 2.597 3.353 3.503 0 1.738 2.5-.933 6.198.326 12.405" id="ay"/>
        <path d="m22.648 2.462-2.3 4.717S14.55 8.1 8.804 9.577C1.424 11.474 0 12.513 0 12.513v82.46C0 149.536 44.5 166 44.5 166S89 149.536 89 94.973v-82.46s-1.424-1.04-8.804-2.936C74.449 8.1 68.652 7.179 68.652 7.179l-2.3-4.717S57.534 0 44.5 0C31.465 0 22.648 2.462 22.648 2.462" id="aA"/>
        <path d="m22.648 2.462-2.3 4.717S14.55 8.1 8.804 9.577C1.424 11.474 0 12.513 0 12.513v82.46C0 149.536 44.5 166 44.5 166S89 149.536 89 94.973v-82.46s-1.424-1.04-8.804-2.936C74.449 8.1 68.652 7.179 68.652 7.179l-2.3-4.717S57.534 0 44.5 0C31.465 0 22.648 2.462 22.648 2.462" id="aC"/>
        <path d="M.12 10.213c.645 5.235 1.08 5.8.41 9.787 1.13-1.422 2.724-4.5 1.878-9.381C1.642 6.199 2.187 2.759 3 0 1.594 1.994-.529 4.94.12 10.213" id="aE"/>
        <path d="m22.648 2.462-2.3 4.717S14.55 8.1 8.804 9.577C1.424 11.474 0 12.513 0 12.513v82.46C0 149.536 44.5 166 44.5 166S89 149.536 89 94.973v-82.46s-1.424-1.04-8.804-2.936C74.449 8.1 68.652 7.179 68.652 7.179l-2.3-4.717S57.534 0 44.5 0C31.465 0 22.648 2.462 22.648 2.462" id="aG"/>
        <path d="m22.648 2.462-2.3 4.717S14.55 8.1 8.804 9.577C1.424 11.474 0 12.513 0 12.513v82.46C0 149.536 44.5 166 44.5 166S89 149.536 89 94.973v-82.46s-1.424-1.04-8.804-2.936C74.449 8.1 68.652 7.179 68.652 7.179l-2.3-4.717S57.534 0 44.5 0C31.465 0 22.648 2.462 22.648 2.462" id="aI"/>
        <path d="M.667 21.85C2.776 32.524 3.681 33.583 3.133 42c1.85-3.224 4.27-9.99 1.85-19.88C2.79 13.163 3.2 5.91 4.228 0 1.969 4.478-1.456 11.105.667 21.85" id="aK"/>
        <path d="M.667 21.85C2.776 32.524 3.681 33.583 3.133 42c1.85-3.224 4.27-9.99 1.85-19.88C2.79 13.163 3.2 5.91 4.228 0 1.969 4.478-1.456 11.105.667 21.85" id="aM"/>
        <path d="m22.648 2.462-2.3 4.717S14.55 8.1 8.804 9.577C1.424 11.474 0 12.513 0 12.513v82.46C0 149.536 44.5 166 44.5 166S89 149.536 89 94.973v-82.46s-1.424-1.04-8.804-2.936C74.449 8.1 68.652 7.179 68.652 7.179l-2.3-4.717S57.534 0 44.5 0C31.465 0 22.648 2.462 22.648 2.462" id="aO"/>
        <path d="m22.648 2.462-2.3 4.717S14.55 8.1 8.804 9.577C1.424 11.474 0 12.513 0 12.513v82.46C0 149.536 44.5 166 44.5 166S89 149.536 89 94.973v-82.46s-1.424-1.04-8.804-2.936C74.449 8.1 68.652 7.179 68.652 7.179l-2.3-4.717S57.534 0 44.5 0C31.465 0 22.648 2.462 22.648 2.462" id="aQ"/>
        <path d="M3.55 2.04C-.018 5.092-1.242 8.714 1.485 15.073c2.728 6.36 10.423 7.924 14.164 6.367 3.742-1.557 6.197-8.683 2.573-15.03C15.41 1.485 12.068 0 9.206 0 6.757 0 4.66 1.087 3.549 2.04" id="aS"/>
        <path d="M3.55 2.04C-.018 5.092-1.242 8.714 1.485 15.073c2.728 6.36 10.423 7.924 14.164 6.367 3.742-1.557 6.197-8.683 2.573-15.03C15.41 1.485 12.068 0 9.206 0 6.757 0 4.66 1.087 3.549 2.04" id="aU"/>
        <path d="M3.55 2.04C-.018 5.092-1.242 8.714 1.485 15.073c2.728 6.36 10.423 7.924 14.164 6.367 3.742-1.557 6.197-8.683 2.573-15.03C15.41 1.485 12.068 0 9.206 0 6.757 0 4.66 1.087 3.549 2.04" id="aW"/>
        <path d="m22.648 2.462-2.3 4.717S14.55 8.1 8.804 9.577C1.424 11.474 0 12.513 0 12.513v82.46C0 149.536 44.5 166 44.5 166S89 149.536 89 94.973v-82.46s-1.424-1.04-8.804-2.936C74.449 8.1 68.652 7.179 68.652 7.179l-2.3-4.717S57.534 0 44.5 0C31.465 0 22.648 2.462 22.648 2.462" id="aY"/>
        <path d="m22.648 2.462-2.3 4.717S14.55 8.1 8.804 9.577C1.424 11.474 0 12.513 0 12.513v82.46C0 149.536 44.5 166 44.5 166S89 149.536 89 94.973v-82.46s-1.424-1.04-8.804-2.936C74.449 8.1 68.652 7.179 68.652 7.179l-2.3-4.717S57.534 0 44.5 0C31.465 0 22.648 2.462 22.648 2.462" id="ba"/>
        <path d="M19.483 6.794c.24-2.16.012-3.8-.541-4.96-1.625 4.62-3.656 6.048-6.702 7.474 2.572 1.087 3.48 1.27 4.902 1.27-2.91 2.007-9.574.429-12.35-.454-.947 2.513.068 5.843.813 6.998-2.166-.951-3.385-4.28-3.791-5.843-.339 2.445-.406 1.426.406 3.805.813 2.378 1.389 3.006 1.592 5.18.203 2.174.598 2.36-1.186 4.74.647-.1 3.018-.701 3.86-4.281 4.512 8.624-4.081 11.14-6.486 12.48 2.318.3 3.327.093 4.222-.114 1.036-.24 1.918-.48 4.497.067 4.807 1.02 5.5 2.578 8.327 5.844-1.043-5.832-3.183-12.216 3.453-20.927-7.244 3.805-7.176 10.192-7.176 10.192s-.339-3.737 2.098-9.58c2.438-5.844 5.594-4.935 7.609-8.711 1.854-3.476.836-7.705-1.244-9.974-.353 2.574-.733 4.634-2.303 6.794" id="bc"/>
        <path d="m22.648 2.462-2.3 4.717S14.55 8.1 8.804 9.577C1.424 11.474 0 12.513 0 12.513v82.46C0 149.536 44.5 166 44.5 166S89 149.536 89 94.973v-82.46s-1.424-1.04-8.804-2.936C74.449 8.1 68.652 7.179 68.652 7.179l-2.3-4.717S57.534 0 44.5 0C31.465 0 22.648 2.462 22.648 2.462" id="be"/>
        <path d="m22.648 2.462-2.3 4.717S14.55 8.1 8.804 9.577C1.424 11.474 0 12.513 0 12.513v82.46C0 149.536 44.5 166 44.5 166S89 149.536 89 94.973v-82.46s-1.424-1.04-8.804-2.936C74.449 8.1 68.652 7.179 68.652 7.179l-2.3-4.717S57.534 0 44.5 0C31.465 0 22.648 2.462 22.648 2.462" id="bg"/>
        <path d="m22.648 2.462-2.3 4.717S14.55 8.1 8.804 9.577C1.424 11.474 0 12.513 0 12.513v82.46C0 149.536 44.5 166 44.5 166S89 149.536 89 94.973v-82.46s-1.424-1.04-8.804-2.936C74.449 8.1 68.652 7.179 68.652 7.179l-2.3-4.717S57.534 0 44.5 0C31.465 0 22.648 2.462 22.648 2.462" id="bi"/>
        <path d="M3.55 2.04C-.018 5.092-1.242 8.714 1.485 15.073c2.728 6.36 10.423 7.924 14.164 6.367 3.742-1.557 6.197-8.683 2.573-15.03C15.41 1.485 12.068 0 9.206 0 6.757 0 4.66 1.087 3.549 2.04" id="bk"/>
        <path d="M3.55 2.04C-.018 5.092-1.242 8.714 1.485 15.073c2.728 6.36 10.423 7.924 14.164 6.367 3.742-1.557 6.197-8.683 2.573-15.03C15.41 1.485 12.068 0 9.206 0 6.757 0 4.66 1.087 3.549 2.04" id="bm"/>
        <path d="M3.55 2.04C-.018 5.092-1.242 8.714 1.485 15.073c2.728 6.36 10.423 7.924 14.164 6.367 3.742-1.557 6.197-8.683 2.573-15.03C15.41 1.485 12.068 0 9.206 0 6.757 0 4.66 1.087 3.549 2.04" id="bo"/>
        <path d="m22.648 2.462-2.3 4.717S14.55 8.1 8.804 9.577C1.424 11.474 0 12.513 0 12.513v82.46C0 149.536 44.5 166 44.5 166S89 149.536 89 94.973v-82.46s-1.424-1.04-8.804-2.936C74.449 8.1 68.652 7.179 68.652 7.179l-2.3-4.717S57.534 0 44.5 0C31.465 0 22.648 2.462 22.648 2.462" id="bq"/>
        <path d="m22.648 2.462-2.3 4.717S14.55 8.1 8.804 9.577C1.424 11.474 0 12.513 0 12.513v82.46C0 149.536 44.5 166 44.5 166S89 149.536 89 94.973v-82.46s-1.424-1.04-8.804-2.936C74.449 8.1 68.652 7.179 68.652 7.179l-2.3-4.717S57.534 0 44.5 0C31.465 0 22.648 2.462 22.648 2.462" id="bs"/>
        <path d="M19.483 6.794c.24-2.16.012-3.8-.541-4.96-1.625 4.62-3.656 6.048-6.702 7.474 2.572 1.087 3.48 1.27 4.902 1.27-2.91 2.007-9.574.429-12.35-.454-.947 2.513.068 5.843.813 6.998-2.166-.951-3.385-4.28-3.791-5.843-.339 2.445-.406 1.426.406 3.805.813 2.378 1.389 3.006 1.592 5.18.203 2.174.598 2.36-1.186 4.74.647-.1 3.018-.701 3.86-4.281 4.512 8.624-4.081 11.14-6.486 12.48 2.318.3 3.327.093 4.222-.114 1.036-.24 1.918-.48 4.497.067 4.807 1.02 5.5 2.578 8.327 5.844-1.043-5.832-3.183-12.216 3.453-20.927-7.244 3.805-7.176 10.192-7.176 10.192s-.339-3.737 2.098-9.58c2.438-5.844 5.594-4.935 7.609-8.711 1.854-3.476.836-7.705-1.244-9.974-.353 2.574-.733 4.634-2.303 6.794" id="bu"/>
        <path d="M19.483 6.794c.24-2.16.012-3.8-.541-4.96-1.625 4.62-3.656 6.048-6.702 7.474 2.572 1.087 3.48 1.27 4.902 1.27-2.91 2.007-9.574.429-12.35-.454-.947 2.513.068 5.843.813 6.998-2.166-.951-3.385-4.28-3.791-5.843-.339 2.445-.406 1.426.406 3.805.813 2.378 1.389 3.006 1.592 5.18.203 2.174.598 2.36-1.186 4.74.647-.1 3.018-.701 3.86-4.281 4.512 8.624-4.081 11.14-6.486 12.48 2.318.3 3.327.093 4.222-.114 1.036-.24 1.918-.48 4.497.067 4.807 1.02 5.5 2.578 8.327 5.844-1.043-5.832-3.183-12.216 3.453-20.927-7.244 3.805-7.176 10.192-7.176 10.192s-.339-3.737 2.098-9.58c2.438-5.844 5.594-4.935 7.609-8.711 1.854-3.476.836-7.705-1.244-9.974-.353 2.574-.733 4.634-2.303 6.794" id="bw"/>
        <path d="M19.483 6.794c.24-2.16.012-3.8-.541-4.96-1.625 4.62-3.656 6.048-6.702 7.474 2.572 1.087 3.48 1.27 4.902 1.27-2.91 2.007-9.574.429-12.35-.454-.947 2.513.068 5.843.813 6.998-2.166-.951-3.385-4.28-3.791-5.843-.339 2.445-.406 1.426.406 3.805.813 2.378 1.389 3.006 1.592 5.18.203 2.174.598 2.36-1.186 4.74.647-.1 3.018-.701 3.86-4.281 4.512 8.624-4.081 11.14-6.486 12.48 2.318.3 3.327.093 4.222-.114 1.036-.24 1.918-.48 4.497.067 4.807 1.02 5.5 2.578 8.327 5.844-1.043-5.832-3.183-12.216 3.453-20.927-7.244 3.805-7.176 10.192-7.176 10.192s-.339-3.737 2.098-9.58c2.438-5.844 5.594-4.935 7.609-8.711 1.854-3.476.836-7.705-1.244-9.974-.353 2.574-.733 4.634-2.303 6.794" id="by"/>
        <path d="M19.483 6.794c.24-2.16.012-3.8-.541-4.96-1.625 4.62-3.656 6.048-6.702 7.474 2.572 1.087 3.48 1.27 4.902 1.27-2.91 2.007-9.574.429-12.35-.454-.947 2.513.068 5.843.813 6.998-2.166-.951-3.385-4.28-3.791-5.843-.339 2.445-.406 1.426.406 3.805.813 2.378 1.389 3.006 1.592 5.18.203 2.174.598 2.36-1.186 4.74.647-.1 3.018-.701 3.86-4.281 4.512 8.624-4.081 11.14-6.486 12.48 2.318.3 3.327.093 4.222-.114 1.036-.24 1.918-.48 4.497.067 4.807 1.02 5.5 2.578 8.327 5.844-1.043-5.832-3.183-12.216 3.453-20.927-7.244 3.805-7.176 10.192-7.176 10.192s-.339-3.737 2.098-9.58c2.438-5.844 5.594-4.935 7.609-8.711 1.854-3.476.836-7.705-1.244-9.974-.353 2.574-.733 4.634-2.303 6.794z" id="bA"/>
        <path d="m22.648 2.462-2.3 4.717S14.55 8.1 8.804 9.577C1.424 11.474 0 12.513 0 12.513v82.46C0 149.536 44.5 166 44.5 166S89 149.536 89 94.973v-82.46s-1.424-1.04-8.804-2.936C74.449 8.1 68.652 7.179 68.652 7.179l-2.3-4.717S57.534 0 44.5 0C31.465 0 22.648 2.462 22.648 2.462" id="bC"/>
        <path d="M44.76 4.009C39.064 1.9 32.722 2.462 32.722 2.462L30 5.556l-2.724-3.094s-6.34-.56-12.036 1.547c.565-.797 1.892-2.179 5.983-4.009C13.868.13 5.078 2.822 0 10.549c1.096.173 4.415.633 7.478 2.742 3.062 2.11 5.413 3.728 8.19 3.446 2.778-.28 3.196-2.285 6.053-2.39-1.535.783-1.994 2.32-1.923 5.555.072 3.235-.07 8.228-1.637 10.55-1.567 2.32-2.208 7.383 2.492 8.58C25.353 40.225 30 41 30 41s4.646-.774 9.347-1.969c4.7-1.196 4.06-6.26 2.492-8.58-1.566-2.32-1.709-7.314-1.637-10.549.07-3.235-.387-4.772-1.923-5.556 2.857.106 3.276 2.11 6.053 2.391 2.778.282 5.128-1.336 8.19-3.446 3.063-2.11 6.382-2.569 7.478-2.742C54.922 2.822 46.133.129 38.777 0c4.091 1.83 5.418 3.212 5.982 4.009z" id="bE"/>
        <path d="M44.76 4.009C39.064 1.9 32.722 2.462 32.722 2.462L30 5.556l-2.724-3.094s-6.34-.56-12.036 1.547c.565-.797 1.892-2.179 5.983-4.009C13.868.13 5.078 2.822 0 10.549c1.096.173 4.415.633 7.478 2.742 3.062 2.11 5.413 3.728 8.19 3.446 2.778-.28 3.196-2.285 6.053-2.39-1.535.783-1.994 2.32-1.923 5.555.072 3.235-.07 8.228-1.637 10.55-1.567 2.32-2.208 7.383 2.492 8.58C25.353 40.225 30 41 30 41s4.646-.774 9.347-1.969c4.7-1.196 4.06-6.26 2.492-8.58-1.566-2.32-1.709-7.314-1.637-10.549.07-3.235-.387-4.772-1.923-5.556 2.857.106 3.276 2.11 6.053 2.391 2.778.282 5.128-1.336 8.19-3.446 3.063-2.11 6.382-2.569 7.478-2.742C54.922 2.822 46.133.129 38.777 0c4.091 1.83 5.418 3.212 5.982 4.009" id="bG"/>
        <path d="M44.76 4.009C39.064 1.9 32.722 2.462 32.722 2.462L30 5.556l-2.724-3.094s-6.34-.56-12.036 1.547c.565-.797 1.892-2.179 5.983-4.009C13.868.13 5.078 2.822 0 10.549c1.096.173 4.415.633 7.478 2.742 3.062 2.11 5.413 3.728 8.19 3.446 2.778-.28 3.196-2.285 6.053-2.39-1.535.783-1.994 2.32-1.923 5.555.072 3.235-.07 8.228-1.637 10.55-1.567 2.32-2.208 7.383 2.492 8.58C25.353 40.225 30 41 30 41s4.646-.774 9.347-1.969c4.7-1.196 4.06-6.26 2.492-8.58-1.566-2.32-1.709-7.314-1.637-10.549.07-3.235-.387-4.772-1.923-5.556 2.857.106 3.276 2.11 6.053 2.391 2.778.282 5.128-1.336 8.19-3.446 3.063-2.11 6.382-2.569 7.478-2.742C54.922 2.822 46.133.129 38.777 0c4.091 1.83 5.418 3.212 5.982 4.009" id="bI"/>
        <path d="M44.76 4.009C39.064 1.9 32.722 2.462 32.722 2.462L30 5.556l-2.724-3.094s-6.34-.56-12.036 1.547c.565-.797 1.892-2.179 5.983-4.009C13.868.13 5.078 2.822 0 10.549c1.096.173 4.415.633 7.478 2.742 3.062 2.11 5.413 3.728 8.19 3.446 2.778-.28 3.196-2.285 6.053-2.39-1.535.783-1.994 2.32-1.923 5.555.072 3.235-.07 8.228-1.637 10.55-1.567 2.32-2.208 7.383 2.492 8.58C25.353 40.225 30 41 30 41s4.646-.774 9.347-1.969c4.7-1.196 4.06-6.26 2.492-8.58-1.566-2.32-1.709-7.314-1.637-10.549.07-3.235-.387-4.772-1.923-5.556 2.857.106 3.276 2.11 6.053 2.391 2.778.282 5.128-1.336 8.19-3.446 3.063-2.11 6.382-2.569 7.478-2.742C54.922 2.822 46.133.129 38.777 0c4.091 1.83 5.418 3.212 5.982 4.009z" id="bK"/>
        <path d="M44.76 4.009C39.064 1.9 32.722 2.462 32.722 2.462L30 5.556l-2.724-3.094s-6.34-.56-12.036 1.547c.565-.797 1.892-2.179 5.983-4.009C13.868.13 5.078 2.822 0 10.549c1.096.173 4.415.633 7.478 2.742 3.062 2.11 5.413 3.728 8.19 3.446 2.778-.28 3.196-2.285 6.053-2.39-1.535.783-1.994 2.32-1.923 5.555.072 3.235-.07 8.228-1.637 10.55-1.567 2.32-2.208 7.383 2.492 8.58C25.353 40.225 30 41 30 41s4.646-.774 9.347-1.969c4.7-1.196 4.06-6.26 2.492-8.58-1.566-2.32-1.709-7.314-1.637-10.549.07-3.235-.387-4.772-1.923-5.556 2.857.106 3.276 2.11 6.053 2.391 2.778.282 5.128-1.336 8.19-3.446 3.063-2.11 6.382-2.569 7.478-2.742C54.922 2.822 46.133.129 38.777 0c4.091 1.83 5.418 3.212 5.982 4.009z" id="bM"/>
        <path d="M44.76 4.009C39.064 1.9 32.722 2.462 32.722 2.462L30 5.556l-2.724-3.094s-6.34-.56-12.036 1.547c.565-.797 1.892-2.179 5.983-4.009C13.868.13 5.078 2.822 0 10.549c1.096.173 4.415.633 7.478 2.742 3.062 2.11 5.413 3.728 8.19 3.446 2.778-.28 3.196-2.285 6.053-2.39-1.535.783-1.994 2.32-1.923 5.555.072 3.235-.07 8.228-1.637 10.55-1.567 2.32-2.208 7.383 2.492 8.58C25.353 40.225 30 41 30 41s4.646-.774 9.347-1.969c4.7-1.196 4.06-6.26 2.492-8.58-1.566-2.32-1.709-7.314-1.637-10.549.07-3.235-.387-4.772-1.923-5.556 2.857.106 3.276 2.11 6.053 2.391 2.778.282 5.128-1.336 8.19-3.446 3.063-2.11 6.382-2.569 7.478-2.742C54.922 2.822 46.133.129 38.777 0c4.091 1.83 5.418 3.212 5.982 4.009" id="bO"/>
        <path d="M44.76 4.009C39.064 1.9 32.722 2.462 32.722 2.462L30 5.556l-2.724-3.094s-6.34-.56-12.036 1.547c.565-.797 1.892-2.179 5.983-4.009C13.868.13 5.078 2.822 0 10.549c1.096.173 4.415.633 7.478 2.742 3.062 2.11 5.413 3.728 8.19 3.446 2.778-.28 3.196-2.285 6.053-2.39-1.535.783-1.994 2.32-1.923 5.555.072 3.235-.07 8.228-1.637 10.55-1.567 2.32-2.208 7.383 2.492 8.58C25.353 40.225 30 41 30 41s4.646-.774 9.347-1.969c4.7-1.196 4.06-6.26 2.492-8.58-1.566-2.32-1.709-7.314-1.637-10.549.07-3.235-.387-4.772-1.923-5.556 2.857.106 3.276 2.11 6.053 2.391 2.778.282 5.128-1.336 8.19-3.446 3.063-2.11 6.382-2.569 7.478-2.742C54.922 2.822 46.133.129 38.777 0c4.091 1.83 5.418 3.212 5.982 4.009" id="bQ"/>
        <path d="M44.76 4.009C39.064 1.9 32.722 2.462 32.722 2.462L30 5.556l-2.724-3.094s-6.34-.56-12.036 1.547c.565-.797 1.892-2.179 5.983-4.009C13.868.13 5.078 2.822 0 10.549c1.096.173 4.415.633 7.478 2.742 3.062 2.11 5.413 3.728 8.19 3.446 2.778-.28 3.196-2.285 6.053-2.39-1.535.783-1.994 2.32-1.923 5.555.072 3.235-.07 8.228-1.637 10.55-1.567 2.32-2.208 7.383 2.492 8.58C25.353 40.225 30 41 30 41s4.646-.774 9.347-1.969c4.7-1.196 4.06-6.26 2.492-8.58-1.566-2.32-1.709-7.314-1.637-10.549.07-3.235-.387-4.772-1.923-5.556 2.857.106 3.276 2.11 6.053 2.391 2.778.282 5.128-1.336 8.19-3.446 3.063-2.11 6.382-2.569 7.478-2.742C54.922 2.822 46.133.129 38.777 0c4.091 1.83 5.418 3.212 5.982 4.009" id="bS"/>
        <path d="M44.76 4.009C39.064 1.9 32.722 2.462 32.722 2.462L30 5.556l-2.724-3.094s-6.34-.56-12.036 1.547c.565-.797 1.892-2.179 5.983-4.009C13.868.13 5.078 2.822 0 10.549c1.096.173 4.415.633 7.478 2.742 3.062 2.11 5.413 3.728 8.19 3.446 2.778-.28 3.196-2.285 6.053-2.39-1.535.783-1.994 2.32-1.923 5.555.072 3.235-.07 8.228-1.637 10.55-1.567 2.32-2.208 7.383 2.492 8.58C25.353 40.225 30 41 30 41s4.646-.774 9.347-1.969c4.7-1.196 4.06-6.26 2.492-8.58-1.566-2.32-1.709-7.314-1.637-10.549.07-3.235-.387-4.772-1.923-5.556 2.857.106 3.276 2.11 6.053 2.391 2.778.282 5.128-1.336 8.19-3.446 3.063-2.11 6.382-2.569 7.478-2.742C54.922 2.822 46.133.129 38.777 0c4.091 1.83 5.418 3.212 5.982 4.009" id="bU"/>
        <path d="M44.76 4.009C39.064 1.9 32.722 2.462 32.722 2.462L30 5.556l-2.724-3.094s-6.34-.56-12.036 1.547c.565-.797 1.892-2.179 5.983-4.009C13.868.13 5.078 2.822 0 10.549c1.096.173 4.415.633 7.478 2.742 3.062 2.11 5.413 3.728 8.19 3.446 2.778-.28 3.196-2.285 6.053-2.39-1.535.783-1.994 2.32-1.923 5.555.072 3.235-.07 8.228-1.637 10.55-1.567 2.32-2.208 7.383 2.492 8.58C25.353 40.225 30 41 30 41s4.646-.774 9.347-1.969c4.7-1.196 4.06-6.26 2.492-8.58-1.566-2.32-1.709-7.314-1.637-10.549.07-3.235-.387-4.772-1.923-5.556 2.857.106 3.276 2.11 6.053 2.391 2.778.282 5.128-1.336 8.19-3.446 3.063-2.11 6.382-2.569 7.478-2.742C54.922 2.822 46.133.129 38.777 0c4.091 1.83 5.418 3.212 5.982 4.009" id="bW"/>
        <path d="m22.648 2.462-2.3 4.717S14.55 8.1 8.804 9.577C1.424 11.474 0 12.513 0 12.513v82.46C0 149.536 44.5 166 44.5 166S89 149.536 89 94.973v-82.46s-1.424-1.04-8.804-2.936C74.449 8.1 68.652 7.179 68.652 7.179l-2.3-4.717S57.534 0 44.5 0C31.465 0 22.648 2.462 22.648 2.462" id="bY"/>
        <path d="m22.648 2.462-2.3 4.717S14.55 8.1 8.804 9.577C1.424 11.474 0 12.513 0 12.513v82.46C0 149.536 44.5 166 44.5 166S89 149.536 89 94.973v-82.46s-1.424-1.04-8.804-2.936C74.449 8.1 68.652 7.179 68.652 7.179l-2.3-4.717S57.534 0 44.5 0C31.465 0 22.648 2.462 22.648 2.462" id="ca"/>
        <path d="M.795 30.5C.795 47.345 15.438 61 33.5 61c18.062 0 32.705-13.655 32.705-30.5C66.205 13.656 75.085 0 33.5 0S.795 13.656.795 30.5" id="cc"/>
        <path d="M.009 11.135C-.057 13.863.26 16.846.51 20 8.3 13.35 19.306 9.328 33.5 9.328c14.194 0 25.198 4.023 32.989 10.672.25-3.154.567-6.137.502-8.865C59.91 4.213 49.11 0 33.5 0S7.09 4.213.009 11.135z" id="ce"/>
        <path d="M.009 11.135C-.057 13.863.26 16.846.51 20 8.3 13.35 19.306 9.328 33.5 9.328c14.194 0 25.198 4.023 32.989 10.672.25-3.154.567-6.137.502-8.865C59.91 4.213 49.11 0 33.5 0S7.09 4.213.009 11.135" id="cg"/>
        <path d="M.009 11.135C-.057 13.863.26 16.846.51 20 8.3 13.35 19.306 9.328 33.5 9.328c14.194 0 25.198 4.023 32.989 10.672.25-3.154.567-6.137.502-8.865C59.91 4.213 49.11 0 33.5 0S7.09 4.213.009 11.135z" id="ci"/>
        <path d="M.009 11.135C-.057 13.863.26 16.846.51 20 8.3 13.35 19.306 9.328 33.5 9.328c14.194 0 25.198 4.023 32.989 10.672.25-3.154.567-6.137.502-8.865C59.91 4.213 49.11 0 33.5 0S7.09 4.213.009 11.135z" id="ck"/>
        <path d="M.009 11.135C-.057 13.863.26 16.846.51 20 8.3 13.35 19.306 9.328 33.5 9.328c14.194 0 25.198 4.023 32.989 10.672.25-3.154.567-6.137.502-8.865C59.91 4.213 49.11 0 33.5 0S7.09 4.213.009 11.135" id="cm"/>
        <path d="M.009 11.135C-.057 13.863.26 16.846.51 20 8.3 13.35 19.306 9.328 33.5 9.328c14.194 0 25.198 4.023 32.989 10.672.25-3.154.567-6.137.502-8.865C59.91 4.213 49.11 0 33.5 0S7.09 4.213.009 11.135z" id="co"/>
        <path d="M.304 1.144c-.384.187-.426 2.103 0 1.83 0 0 2.31-.992 6.195-.992 3.885 0 6.195.991 6.195.991.345.163.466-1.618 0-1.829 0 0-2.31-1.144-6.195-1.144C2.615 0 .304 1.144.304 1.144z" id="cq"/>
        <path d="M.304 1.144c-.384.187-.426 2.103 0 1.83 0 0 2.31-.992 6.195-.992 3.885 0 6.195.991 6.195.991.345.163.466-1.618 0-1.829 0 0-2.31-1.144-6.195-1.144C2.615 0 .304 1.144.304 1.144" id="cs"/>
    </defs>
    <g style="mix-blend-mode:screen" fill="none" fill-rule="evenodd">
        <path d="M46.966 170.166c-.466-.172-11.545-4.348-22.757-15.367-6.584-6.47-11.83-13.964-15.594-22.274-4.696-10.372-7.078-22.04-7.078-34.679v-83.07l.63-.46c.277-.201 2.029-1.305 9.313-3.176 4.56-1.171 9.084-1.986 10.874-2.29l2.251-4.617.666-.186c.367-.102 9.156-2.513 22.23-2.513 13.072 0 21.86 2.41 22.228 2.513l.666.186 2.252 4.617c1.79.304 6.313 1.119 10.873 2.29 7.284 1.871 9.036 2.975 9.313 3.177l.63.46v83.07c0 12.639-2.382 24.306-7.078 34.678-3.763 8.31-9.01 15.804-15.594 22.274-11.212 11.019-22.29 15.195-22.757 15.367l-.534.198-.534-.198z" fill="#05063A"/>
        <path d="M47.5 0C34.219 0 25.233 2.465 24.857 2.57l-1.332.372-.605 1.24-1.605 3.29c-2.15.38-6.17 1.142-10.218 2.182-6.909 1.775-9.129 2.907-9.838 3.425L0 13.999V97.845c0 12.86 2.427 24.74 7.214 35.31 3.841 8.484 9.196 16.133 15.916 22.736 11.445 11.247 22.823 15.536 23.301 15.713L47.5 172l1.069-.395c.478-.177 11.856-4.466 23.301-15.713 6.72-6.603 12.075-14.252 15.916-22.735C92.573 122.585 95 110.705 95 97.847V13.997l-1.26-.92c-.708-.517-2.928-1.65-9.837-3.424-4.048-1.04-8.069-1.802-10.218-2.181l-1.605-3.29-.605-1.241-1.332-.372C69.767 2.465 60.781 0 47.5 0m0 3.069c13.012 0 21.815 2.456 21.815 2.456l2.296 4.708s5.788.919 11.525 2.393c7.368 1.892 8.789 2.93 8.789 2.93v82.29c0 54.451-44.425 70.882-44.425 70.882S3.075 152.298 3.075 97.846v-82.29s1.42-1.038 8.789-2.93c5.737-1.474 11.525-2.393 11.525-2.393l2.296-4.708S34.488 3.07 47.5 3.07" fill="#021324"/>
        <path d="M47.5 1.023c-13.143 0-21.997 2.429-22.367 2.532l-.888.248-.404.827-1.833 3.76c-1.949.336-6.286 1.132-10.655 2.254-7.19 1.848-9.08 2.963-9.489 3.26l-.84.613v83.329c0 12.713 2.398 24.451 7.124 34.89 3.79 8.367 9.072 15.914 15.701 22.428 11.29 11.094 22.468 15.308 22.939 15.482l.712.263.712-.263c.47-.174 11.65-4.388 22.939-15.482 6.629-6.514 11.912-14.06 15.7-22.429 4.727-10.438 7.124-22.176 7.124-34.889V14.517l-.84-.613c-.407-.297-2.297-1.412-9.488-3.26-4.369-1.122-8.706-1.918-10.655-2.254L71.16 4.63l-.404-.827-.888-.248c-.37-.103-9.224-2.532-22.367-2.532m0 2.045c13.012 0 21.815 2.457 21.815 2.457l2.296 4.708s5.788.919 11.525 2.392c7.368 1.893 8.789 2.93 8.789 2.93v82.291c0 54.452-44.425 70.881-44.425 70.881s-44.425-16.43-44.425-70.88V15.554s1.42-1.037 8.789-2.93c5.737-1.473 11.525-2.392 11.525-2.392l2.296-4.708S34.488 3.068 47.5 3.068" fill="#4D5871"/>
        <g transform="translate(7 14)">
            <mask id="b" fill="#fff">
                <use xlink:href="#a"/>
            </mask>
            <path fill="#FFF" mask="url(#b)" d="M-11.756 33.345H92.252V-9.379H-11.756z"/>
            <path d="M8.229 2.256c.59-.147 1.18-.29 1.771-.431l.008 4.41a183.143 183.143 0 0 0-5.335 1.241 15030.971 15030.971 0 0 0 .008 8.341v.027l.048-.036a612.524 612.524 0 0 0 3.514-4.511l.002 2.011.003 1.824.001.886-.098.125a550.457 550.457 0 0 1-3.466 4.359v.71a3236.654 3236.654 0 0 1 .004 4.052 357.254 357.254 0 0 1 5.35-.736l.007 4.357a412.44 412.44 0 0 0-5.353.616c-1.364.165-2.727.335-4.09.51V4.351c1.353-.404 2.708-.792 4.065-1.163 1.186-.324 2.373-.635 3.56-.932M15.643 24.137c1.755-.19 3.51-.362 5.267-.516l.008 4.258c-1.756.132-3.512.28-5.266.442-1.376.127-2.751.262-4.126.406l-.007-4.112-.007-4.088-.011-6.157-.007-3.892-.004-2.166-.008-4.212c1.372-.295 2.746-.572 4.12-.83l.009 4.284.004 2.204.008 3.959.012 6.262.008 4.158M29.38 5.824c-.959.076-1.918.16-2.877.255 0 .759.002 1.517.003 2.276l.006 4.085.01 6.463.007 4.292a228.47 228.47 0 0 1 2.874-.165l-.006-4.315-.008-6.497-.005-4.107-.003-2.287m-.006-4.445c1.374-.118 2.748-.214 4.123-.289l.004 4.469.002 2.299.003 4.13.006 6.532.003 4.338.004 4.364a257.133 257.133 0 0 0-6.985.29c-1.378.076-2.755.163-4.133.259l-.008-4.275-.007-4.25-.012-6.401a15175.025 15175.025 0 0 0-.02-10.676 137.09 137.09 0 0 1 7.02-.79M46.93 22.841l1.631 4.414a249.167 249.167 0 0 0-4.435-.104l-1.61-4.396-.371-.974-1.265-3.389-.397-1.075-.546-1.494-.819.87v2.097a14537.054 14537.054 0 0 1 .002 8.338c-1.371.008-2.742.027-4.113.057l-.003-3.977v-.393l-.001-1.7L35 18.47 35 16.51l-.003-4.58-.003-4.134-.002-2.303-.003-4.474c1.376-.06 2.751-.096 4.127-.111V5.39l.001 2.307v4.353l.224-.211c.844-.907 1.689-1.807 2.533-2.7l.273-.285V7.7l.001-2.307L42.15.91c1.384.018 2.768.058 4.151.12l-.002 3.585v.89l-.002 2.301a6654459.645 6654459.645 0 0 0-.003 3.087l-.596.581c-.67.694-1.34 1.393-2.012 2.096a9590.7 9590.7 0 0 1 1.636 4.883l.965 2.591.644 1.797M50.077 1.256c1.374.102 2.748.226 4.12.37l-.005 4.217-.004 2.484-.006 3.958-.003 1.76-.001.956-.007 4.347a3123.897 3123.897 0 0 1-.006 3.983l-.006 4.166c-1.37-.074-2.74-.137-4.111-.19l.005-4.194.002-2.162.002-1.85.005-4.377.001-.963.002-1.772.005-3.986.002-2.5.005-4.247M63.635 2.953c1.367.24 2.734.498 4.099.776l-.008 4.243-.004 2.184-.008 3.921-.011 6.205-.008 4.12-.008 4.144c-1.3-.13-2.602-.252-3.905-.365l-.196-.774-.982-3.552c-.4-1.44-.802-2.883-1.203-4.331-.54-1.97-1.081-3.95-1.622-5.935l-.011 5.768-.008 4.236-.008 4.262a280.525 280.525 0 0 0-4.108-.274l.007-4.307.007-4.281.01-6.447.007-4.075.004-2.269.007-4.41c1.372.16 2.743.342 4.113.543l.05.008 1.23 4.535c.212.777.426 1.552.638 2.326l1.106 4.154.786 2.806.005-2.698a14743.297 14743.297 0 0 0 .012-6.202l.009-4.31M76.323 3.188c1.357.37 2.712.759 4.065 1.163v6.646a216.463 216.463 0 0 0-4.072-.994l.003-2.526a198.533 198.533 0 0 0-2.997-.719 6114.811 6114.811 0 0 0-.01 6.66c0 .607-.002 1.213-.003 1.82l-.001.99-.006 4.493-.003 1.9-.003 2.219a302.95 302.95 0 0 1 3.006.424l.002-2.184.002-1.868v-.868c-.499-1.271-.998-2.551-1.497-3.84a264.59 264.59 0 0 1 5.579 1.114v12.394a552.575 552.575 0 0 0-7.098-.866 389.851 389.851 0 0 0-4.122-.45l.008-4.392.004-2.264.004-1.937.008-4.584.002-1.009.003-1.855.008-4.174.005-2.62.008-4.446a157.405 157.405 0 0 1 7.105 1.773" fill="#FFF" mask="url(#b)"/>
            <path fill="#B5BABC" mask="url(#b)" d="m40.248 19.654 8.314 4.886 12.866 2.463-4.552 6.59 2.573 6.97-10.887 2.084-8.314 4.885-8.315-4.885-10.886-2.084 2.572-6.97-2.572-6.97 10.886-2.083z"/>
        </g>
        <g transform="translate(3 3)">
            <mask id="d" fill="#fff">
                <use xlink:href="#c"/>
            </mask>
            <path d="M44.5 38.448c19.213 0 48.945 20.163 40.002 44.175-8.943 24.012-9.468 32.669-4.734 49.928s24.082 43.353 24.082 43.353l-59.35 30.82-59.35-30.82S4.498 149.81 9.232 132.551c4.734-17.26 4.209-25.916-4.734-49.928C-4.445 58.61 25.286 38.448 44.5 38.448" fill="#05063A" mask="url(#d)"/>
        </g>
        <g transform="translate(3 3)">
            <mask id="f" fill="#fff">
                <use xlink:href="#e"/>
            </mask>
            <path d="M44.5 160.686c7.75-5.048 6.097-14.168 6.097-14.168s1.798 1.63 1.649 3.974c3.475-4.759 3.672-11.82 2.884-15.974 0 0 2.873 1.196 2 8.608 6.617-10.188 1.199-19.971-12.63-19.971s-19.247 9.783-12.63 19.971c-.874-7.412 2-8.608 2-8.608-.788 4.154-.59 11.215 2.884 15.974-.15-2.344 1.648-3.974 1.648-3.974s-1.788 8.8 6.098 14.168" fill="#5C667D" mask="url(#f)"/>
        </g>
        <g transform="translate(3 3)">
            <mask id="h" fill="#fff">
                <use xlink:href="#g"/>
            </mask>
            <path d="M44.5 145.458c3.413 0 4.442-5.284 4.442-5.284s.748 1.187.64 2.895c2.53-3.467 3.235-8.61 2.662-11.637 0 0 1.718.872 1.082 6.271 4.82-7.422 1.247-14.548-8.826-14.548-10.074 0-13.647 7.126-8.827 14.548-.636-5.399 1.083-6.27 1.083-6.27-.574 3.025.131 8.17 2.662 11.636-.109-1.708.64-2.895.64-2.895s1.029 5.284 4.442 5.284" fill="#B5BABC" mask="url(#h)"/>
        </g>
        <g transform="translate(3 3)">
            <mask id="j" fill="#fff">
                <use xlink:href="#i"/>
            </mask>
            <path d="M44.502 148.115s3.872-.255 3.651 2.072c-.397 4.18-3.65 5.459-3.65 5.459s-3.255-1.28-3.652-5.46c-.22-2.326 3.651-2.07 3.651-2.07" fill="#B5BABC" mask="url(#j)"/>
        </g>
        <g transform="translate(3 3)">
            <mask id="l" fill="#fff">
                <use xlink:href="#k"/>
            </mask>
            <path d="M44.555 148.903s1.875-.124 1.768 1.003c-.192 2.024-1.768 2.644-1.768 2.644s-1.576-.62-1.768-2.644c-.107-1.127 1.768-1.003 1.768-1.003" fill="#FFF" mask="url(#l)"/>
        </g>
        <g transform="translate(3 3)">
            <mask id="n" fill="#fff">
                <use xlink:href="#m"/>
            </mask>
            <path d="M44.5 139.989c2.806-2.407 3-5.342 3-5.342s.505.801.431 1.955c1.71-2.341 2.185-5.815 1.798-7.858 0 0 1.16.589.73 4.235 3.256-5.012.843-9.824-5.96-9.824-6.802 0-9.214 4.812-5.96 9.824-.429-3.646.732-4.235.732-4.235-.388 2.043.088 5.517 1.798 7.858-.074-1.154.431-1.955.431-1.955s.194 2.935 3 5.342" fill="#FFF" mask="url(#n)"/>
        </g>
        <g transform="translate(3 3)">
            <mask id="p" fill="#fff">
                <use xlink:href="#o"/>
            </mask>
            <path d="M15.42 86.695c6.631 8.658 4.493 15.003 3.45 20.8 2.825-3.247 3.518-4.795 8.32-5.808 4.804-1.013 3.717.689 8.714.045-2.404-1.33-10.99-3.832-6.48-12.403.84 3.558 3.209 4.156 3.855 4.254-1.781-2.365-1.387-2.55-1.184-4.71.203-2.161.779-2.786 1.59-5.15.812-2.363.744-1.35.406-3.781-.405 1.553-1.623 4.862-3.788 5.808.744-1.148 1.759-4.457.812-6.956-2.774.878-9.432 2.446-12.34.451 1.42 0 2.327-.18 4.898-1.261-3.044-1.418-5.073-2.837-6.697-7.429-.553 1.152-.78 2.782-.541 4.93-1.569-2.148-1.948-4.195-2.3-6.753-2.08 2.255-3.096 6.459-1.244 9.913 2.013 3.753 5.167 2.85 7.603 8.658 2.435 5.808 2.097 9.522 2.097 9.522s.068-6.348-7.171-10.13" fill="#5C667D" mask="url(#p)"/>
        </g>
        <g transform="translate(3 3)">
            <mask id="r" fill="#fff">
                <use xlink:href="#q"/>
            </mask>
            <path d="M37.044 102.51c3.66 3.054 4.916 6.676 2.117 13.037-2.8 6.36-10.697 7.924-14.536 6.367-3.84-1.557-6.36-8.684-2.64-15.033 5.354-9.139 12.585-6.437 15.059-4.372" fill="#5C667D" mask="url(#r)"/>
        </g>
        <g transform="translate(3 3)">
            <mask id="t" fill="#fff">
                <use xlink:href="#s"/>
            </mask>
            <path d="M39.435 108.933c0 3.7-2.484 6.7-5.548 6.7s-5.548-3-5.548-6.7 2.484-6.7 5.548-6.7 5.548 3 5.548 6.7" fill="#FFF" mask="url(#t)"/>
        </g>
        <g transform="translate(23 103)">
            <mask id="v" fill="#fff">
                <use xlink:href="#u"/>
            </mask>
            <path d="M12.65 4.255S4.526 3.536-5.413 11.26c-12.015 9.34-5.378 10.66-5.378 10.66s.704.122 9.53-9.343C3.705 7.25 12.65 4.255 12.65 4.255" fill="#05063A" mask="url(#v)"/>
        </g>
        <g transform="translate(23 103)">
            <mask id="x" fill="#fff">
                <use xlink:href="#w"/>
            </mask>
            <path d="M14.038 7.73S5.992 9.097-1.767 19.103c-9.38 12.099-2.631 11.692-2.631 11.692s.712-.06 6.97-11.469C6.099 12.901 14.039 7.73 14.039 7.73" fill="#05063A" mask="url(#x)"/>
        </g>
        <g transform="translate(23 103)">
            <mask id="z" fill="#fff">
                <use xlink:href="#y"/>
            </mask>
            <path d="M16.292 10.85s-7.487 3.314-12.66 14.942c-6.256 14.059.198 11.997.198 11.997s.677-.234 4.065-12.853c1.908-7.106 8.397-14.086 8.397-14.086" fill="#05063A" mask="url(#z)"/>
        </g>
        <g transform="translate(15 71)">
            <mask id="B" fill="#fff">
                <use xlink:href="#A"/>
            </mask>
            <path d="M20.397 6.593c0 3.99-4.35 7.566-10.155 7.566-5.806 0-9.987-3.406-10.21-7.49-.217-3.985-.619-9.426 5.187-9.426 5.805 0 15.178 5.36 15.178 9.35" fill="#B5BABC" mask="url(#B)"/>
        </g>
        <g transform="translate(3 3)">
            <mask id="D" fill="#fff">
                <use xlink:href="#C"/>
            </mask>
            <path d="M10.855 85.462c2.158 4.554 5.43 11.294 3.401 22.223-2.013 10.853-2.878 11.93-2.355 20.491-1.766-3.279-4.078-10.16-1.766-20.218 2.093-9.108 1.7-16.485.72-22.496" fill="#05063A" mask="url(#D)"/>
        </g>
        <g transform="translate(3 3)">
            <mask id="F" fill="#fff">
                <use xlink:href="#E"/>
            </mask>
            <path d="M37.044 102.51c3.66 3.054 4.916 6.676 2.117 13.037-2.8 6.36-10.697 7.924-14.536 6.367-3.84-1.557-6.36-8.684-2.64-15.033 5.354-9.139 12.585-6.437 15.059-4.372" fill="#5C667D" mask="url(#F)"/>
        </g>
        <g transform="translate(3 3)">
            <mask id="H" fill="#fff">
                <use xlink:href="#G"/>
            </mask>
            <path d="M15.42 86.695c6.631 8.658 4.493 15.003 3.45 20.8 2.825-3.247 3.518-4.795 8.32-5.808 4.804-1.013 3.717.689 8.714.045-2.404-1.33-10.99-3.832-6.48-12.403.84 3.558 3.209 4.156 3.855 4.254-1.781-2.365-1.387-2.55-1.184-4.71.203-2.161.779-2.786 1.59-5.15.812-2.363.744-1.35.406-3.781-.405 1.553-1.623 4.862-3.788 5.808.744-1.148 1.759-4.457.812-6.956-2.774.878-9.432 2.446-12.34.451 1.42 0 2.327-.18 4.898-1.261-3.044-1.418-5.073-2.837-6.697-7.429-.553 1.152-.78 2.782-.541 4.93-1.569-2.148-1.948-4.195-2.3-6.753-2.08 2.255-3.096 6.459-1.244 9.913 2.013 3.753 5.167 2.85 7.603 8.658 2.435 5.808 2.097 9.522 2.097 9.522s.068-6.348-7.171-10.13" fill="#5C667D" mask="url(#H)"/>
        </g>
        <g transform="translate(3 3)">
            <mask id="J" fill="#fff">
                <use xlink:href="#I"/>
            </mask>
            <path d="M40.192 109.813c0 4.45-3.367 8.058-7.52 8.058-4.154 0-7.522-3.608-7.522-8.058 0-4.45 3.368-8.057 7.522-8.057 4.153 0 7.52 3.607 7.52 8.057" fill="#B5BABC" mask="url(#J)"/>
        </g>
        <g transform="translate(3 3)">
            <mask id="L" fill="#fff">
                <use xlink:href="#K"/>
            </mask>
            <path d="M39.435 108.933c0 3.7-2.484 6.7-5.548 6.7s-5.548-3-5.548-6.7 2.484-6.7 5.548-6.7 5.548 3 5.548 6.7" fill="#FFF" mask="url(#L)"/>
        </g>
        <g transform="translate(23 103)">
            <mask id="N" fill="#fff">
                <use xlink:href="#M"/>
            </mask>
            <path d="M12.65 4.255S4.526 3.536-5.413 11.26c-12.015 9.34-5.378 10.66-5.378 10.66s.704.122 9.53-9.343C3.705 7.25 12.65 4.255 12.65 4.255" fill="#05063A" mask="url(#N)"/>
        </g>
        <g transform="translate(23 103)">
            <mask id="P" fill="#fff">
                <use xlink:href="#O"/>
            </mask>
            <path d="M14.038 7.73S5.992 9.097-1.767 19.103c-9.38 12.099-2.631 11.692-2.631 11.692s.712-.06 6.97-11.469C6.099 12.901 14.039 7.73 14.039 7.73" fill="#05063A" mask="url(#P)"/>
        </g>
        <g transform="translate(23 103)">
            <mask id="R" fill="#fff">
                <use xlink:href="#Q"/>
            </mask>
            <path d="M16.292 10.85s-7.487 3.314-12.66 14.942c-6.256 14.059.198 11.997.198 11.997s.677-.234 4.065-12.853c1.908-7.106 8.397-14.086 8.397-14.086" fill="#05063A" mask="url(#R)"/>
        </g>
        <g transform="translate(3 3)">
            <mask id="T" fill="#fff">
                <use xlink:href="#S"/>
            </mask>
            <path d="M30.3 75.662c-3.618-1.15-6.44-2.936-7.474-3.65-1.033-.715-2.385-1.509-2.703-1.191-.318.317.2 1.587 1.272 2.5 1.074.912 2.107 2.46 8.904 2.341" fill="#EB5437" mask="url(#T)"/>
        </g>
        <g transform="translate(15 71)">
            <mask id="V" fill="#fff">
                <use xlink:href="#U"/>
            </mask>
            <path d="M20.397 6.593c0 3.99-4.35 7.566-10.155 7.566-5.806 0-9.987-3.406-10.21-7.49-.217-3.985-.619-9.426 5.187-9.426 5.805 0 15.178 5.36 15.178 9.35" fill="#B5BABC" mask="url(#V)"/>
        </g>
        <g transform="translate(15 71)">
            <mask id="X" fill="#fff">
                <use xlink:href="#W"/>
            </mask>
            <path d="M6.831 17.636s7.219 9.542 1.896 17.746c1.11-5.185.35-11.54-2.542-15.668-1.16-1.656.646-2.078.646-2.078" fill="#B5BABC" mask="url(#X)"/>
        </g>
        <g transform="translate(15 71)">
            <mask id="Z" fill="#fff">
                <use xlink:href="#Y"/>
            </mask>
            <path d="M7.671 19.113s4.813 7.07 2.241 12.76c.35-3.852.04-7.02-1.97-10.297-.73-1.19-.271-2.463-.271-2.463" fill="#FFF" mask="url(#Z)"/>
        </g>
        <g transform="translate(15 71)">
            <mask id="ab" fill="#fff">
                <use xlink:href="#aa"/>
            </mask>
            <path d="M.975 1.834C.637 4.65.397 6.657 2.328 8.718c-.57-.294-2.2-1.256-2.271-3.737-.07-2.48.477-3.308.477-3.308l.441.16z" fill="#FFF" mask="url(#ab)"/>
        </g>
        <g transform="translate(3 3)">
            <mask id="ad" fill="#fff">
                <use xlink:href="#ac"/>
            </mask>
            <path d="M10.855 85.462c2.158 4.554 5.43 11.294 3.401 22.223-2.013 10.853-2.878 11.93-2.355 20.491-1.766-3.279-4.078-10.16-1.766-20.218 2.093-9.108 1.7-16.485.72-22.496" fill="#5C667D" mask="url(#ad)"/>
        </g>
        <g transform="translate(12 88)">
            <mask id="af" fill="#fff">
                <use xlink:href="#ae"/>
            </mask>
            <path d="M3.762 4.047c3.202 4.01 2.915 13.54.919 18.372-1.594 3.86-3.143 7.267-2.705 13.992-1.105-2.653-2.108-8.402.356-15.679 1.919-5.667 2.448-7.526 1.43-16.685" fill="#B5BABC" mask="url(#af)"/>
        </g>
        <g transform="translate(12 88)">
            <mask id="ah" fill="#fff">
                <use xlink:href="#ag"/>
            </mask>
            <path d="M5.656 10.691c.687 4.89.156 6.734-.75 9.077C3.553 23.27 1.85 26.09 1.497 32.23c-.306-3.826-.087-7.105 2.91-14.747 1.99-5.07.875-7.086 1.25-6.793" fill="#FFF" mask="url(#ah)"/>
        </g>
        <g transform="translate(3 3)">
            <mask id="aj" fill="#fff">
                <use xlink:href="#ai"/>
            </mask>
            <path d="M15.026 114.407c1.585 2.502 3.982 6.203 2.852 12.415-1.122 6.168-1.688 6.8-1.127 11.605-1.287-1.795-3.03-5.604-1.686-11.334 1.217-5.188.774-9.33-.04-12.686" fill="#05063A" mask="url(#aj)"/>
        </g>
        <g transform="translate(3 3)">
            <mask id="al" fill="#fff">
                <use xlink:href="#ak"/>
            </mask>
            <path d="M15.026 114.407c1.585 2.502 3.982 6.203 2.852 12.415-1.122 6.168-1.688 6.8-1.127 11.605-1.287-1.795-3.03-5.604-1.686-11.334 1.217-5.188.774-9.33-.04-12.686" fill="#5C667D" mask="url(#al)"/>
        </g>
        <g transform="translate(17 117)">
            <mask id="an" fill="#fff">
                <use xlink:href="#am"/>
            </mask>
            <path d="M2.055 2.261c2.438 2.207 2.484 7.667 1.16 10.486C2.158 15 1.121 16.991 1.62 20.827c-.875-1.488-1.76-4.75-.16-8.98 1.245-3.295 1.58-4.374.595-9.586" fill="#B5BABC" mask="url(#an)"/>
        </g>
        <g>
            <g transform="translate(3 3)">
                <mask id="ap" fill="#fff">
                    <use xlink:href="#ao"/>
                </mask>
                <path d="M20.243 126.25c1.426 2.003 3.579 4.963 2.92 10.259-.653 5.259-1.094 5.826-.415 9.831-1.146-1.427-2.762-4.52-1.904-9.423.776-4.44.224-7.896-.6-10.667" fill="#05063A" mask="url(#ap)"/>
            </g>
            <g transform="translate(3 3)">
                <mask id="ar" fill="#fff">
                    <use xlink:href="#aq"/>
                </mask>
                <path d="M20.243 126.25c1.426 2.003 3.579 4.963 2.92 10.259-.653 5.259-1.094 5.826-.415 9.831-1.146-1.427-2.762-4.52-1.904-9.423.776-4.44.224-7.896-.6-10.667" fill="#5C667D" mask="url(#ar)"/>
            </g>
        </g>
        <g transform="translate(23 129)">
            <mask id="at" fill="#fff">
                <use xlink:href="#as"/>
            </mask>
            <path d="M1.33 1.806c1.627 1.711 1.866 6.283 1.136 8.72-.582 1.947-1.162 3.675-.7 6.86-.61-1.197-1.295-3.88-.445-7.515.662-2.831.832-3.754.008-8.065" fill="#B5BABC" mask="url(#at)"/>
        </g>
        <g>
            <g transform="translate(3 3)">
                <mask id="av" fill="#fff">
                    <use xlink:href="#au"/>
                </mask>
                <path d="M73.974 114.407c-1.585 2.502-3.982 6.203-2.853 12.415 1.122 6.168 1.688 6.8 1.128 11.605 1.286-1.795 3.03-5.604 1.686-11.334-1.217-5.188-.775-9.33.039-12.686" fill="#05063A" mask="url(#av)"/>
            </g>
            <g transform="translate(3 3)">
                <mask id="ax" fill="#fff">
                    <use xlink:href="#aw"/>
                </mask>
                <path d="M73.974 114.407c-1.585 2.502-3.982 6.203-2.853 12.415 1.122 6.168 1.688 6.8 1.128 11.605 1.286-1.795 3.03-5.604 1.686-11.334-1.217-5.188-.775-9.33.039-12.686" fill="#5C667D" mask="url(#ax)"/>
            </g>
        </g>
        <g transform="translate(73 117)">
            <mask id="az" fill="#fff">
                <use xlink:href="#ay"/>
            </mask>
            <path d="M1.946 2.261C-.493 4.468-.538 9.928.786 12.747 1.841 15 2.878 16.991 2.38 20.827c.874-1.488 1.759-4.75.16-8.98C1.294 8.551.958 7.472 1.945 2.26" fill="#B5BABC" mask="url(#az)"/>
        </g>
        <g>
            <g transform="translate(3 3)">
                <mask id="aB" fill="#fff">
                    <use xlink:href="#aA"/>
                </mask>
                <path d="M68.756 126.25c-1.425 2.003-3.578 4.963-2.92 10.259.654 5.259 1.095 5.826.415 9.831 1.147-1.427 2.763-4.52 1.905-9.423-.777-4.44-.224-7.896.6-10.667" fill="#05063A" mask="url(#aB)"/>
            </g>
            <g transform="translate(3 3)">
                <mask id="aD" fill="#fff">
                    <use xlink:href="#aC"/>
                </mask>
                <path d="M68.756 126.25c-1.425 2.003-3.578 4.963-2.92 10.259.654 5.259 1.095 5.826.415 9.831 1.147-1.427 2.763-4.52 1.905-9.423-.777-4.44-.224-7.896.6-10.667" fill="#5C667D" mask="url(#aD)"/>
            </g>
        </g>
        <g transform="translate(69 129)">
            <mask id="aF" fill="#fff">
                <use xlink:href="#aE"/>
            </mask>
            <path d="M1.67 1.806C.044 3.517-.195 8.089.535 10.526c.582 1.947 1.162 3.675.7 6.86.61-1.197 1.295-3.88.445-7.515-.662-2.831-.832-3.754-.008-8.065" fill="#B5BABC" mask="url(#aF)"/>
        </g>
        <g>
            <g transform="translate(3 3)">
                <mask id="aH" fill="#fff">
                    <use xlink:href="#aG"/>
                </mask>
                <path d="M78.145 85.462c-2.159 4.554-5.43 11.294-3.402 22.223 2.014 10.853 2.879 11.93 2.355 20.491 1.767-3.279 4.079-10.16 1.767-20.218-2.094-9.108-1.701-16.485-.72-22.496" fill="#05063A" mask="url(#aH)"/>
            </g>
            <g transform="translate(3 3)">
                <mask id="aJ" fill="#fff">
                    <use xlink:href="#aI"/>
                </mask>
                <path d="M78.145 85.462c-2.159 4.554-5.43 11.294-3.402 22.223 2.014 10.853 2.879 11.93 2.355 20.491 1.767-3.279 4.079-10.16 1.767-20.218-2.094-9.108-1.701-16.485-.72-22.496" fill="#5C667D" mask="url(#aJ)"/>
            </g>
        </g>
        <g>
            <g transform="translate(77 88)">
                <mask id="aL" fill="#fff">
                    <use xlink:href="#aK"/>
                </mask>
                <path d="M2.238 4.047c-3.202 4.01-2.915 13.54-.919 18.372 1.594 3.86 3.143 7.267 2.705 13.992 1.105-2.653 2.108-8.402-.356-15.679-1.919-5.667-2.448-7.526-1.43-16.685" fill="#B5BABC" mask="url(#aL)"/>
            </g>
            <g transform="translate(77 88)">
                <mask id="aN" fill="#fff">
                    <use xlink:href="#aM"/>
                </mask>
                <path d="M.344 10.691c-.687 4.89-.156 6.734.75 9.077C2.447 23.27 4.15 26.09 4.503 32.23c.306-3.826.087-7.105-2.91-14.747-1.99-5.07-.875-7.086-1.25-6.793" fill="#FFF" mask="url(#aN)"/>
            </g>
        </g>
        <g>
            <g transform="translate(3 3)">
                <mask id="aP" fill="#fff">
                    <use xlink:href="#aO"/>
                </mask>
                <path d="M51.956 102.51c-3.66 3.054-4.917 6.676-2.117 13.037 2.799 6.36 10.697 7.924 14.536 6.367 3.84-1.557 6.36-8.684 2.64-15.033-5.355-9.139-12.585-6.437-15.06-4.372" fill="#5C667D" mask="url(#aP)"/>
            </g>
            <g transform="translate(3 3)">
                <mask id="aR" fill="#fff">
                    <use xlink:href="#aQ"/>
                </mask>
                <path d="M49.565 108.933c0 3.7 2.484 6.7 5.548 6.7s5.547-3 5.547-6.7-2.483-6.7-5.547-6.7c-3.064 0-5.548 3-5.548 6.7" fill="#FFF" mask="url(#aR)"/>
            </g>
        </g>
        <g>
            <g transform="translate(51 103)">
                <mask id="aT" fill="#fff">
                    <use xlink:href="#aS"/>
                </mask>
                <path d="M7.35 4.255s8.125-.719 18.064 7.006c12.015 9.34 5.378 10.66 5.378 10.66s-.704.122-9.53-9.343C16.295 7.25 7.35 4.255 7.35 4.255" fill="#05063A" mask="url(#aT)"/>
            </g>
            <g transform="translate(51 103)">
                <mask id="aV" fill="#fff">
                    <use xlink:href="#aU"/>
                </mask>
                <path d="M5.962 7.73s8.046 1.367 15.805 11.373c9.38 12.099 2.631 11.692 2.631 11.692s-.711-.06-6.97-11.469C13.901 12.901 5.961 7.73 5.961 7.73" fill="#05063A" mask="url(#aV)"/>
            </g>
            <g transform="translate(51 103)">
                <mask id="aX" fill="#fff">
                    <use xlink:href="#aW"/>
                </mask>
                <path d="M3.708 10.85s7.487 3.314 12.66 14.942c6.256 14.059-.198 11.997-.198 11.997s-.677-.234-4.065-12.853C10.197 17.83 3.708 10.85 3.708 10.85" fill="#05063A" mask="url(#aX)"/>
            </g>
        </g>
        <g>
            <g transform="translate(3 3)">
                <mask id="aZ" fill="#fff">
                    <use xlink:href="#aY"/>
                </mask>
                <path d="M58.7 75.662c3.618-1.15 6.44-2.936 7.474-3.65 1.033-.715 2.384-1.509 2.702-1.191.318.317-.198 1.587-1.272 2.5-1.073.912-2.106 2.46-8.904 2.341" fill="#D6DDFF" mask="url(#aZ)"/>
            </g>
            <g transform="translate(3 3)">
                <mask id="bb" fill="#fff">
                    <use xlink:href="#ba"/>
                </mask>
                <path d="M73.58 86.695c-6.632 8.658-4.493 15.003-3.45 20.8-2.825-3.247-3.518-4.795-8.321-5.808-4.804-1.013-3.716.689-8.713.045 2.403-1.33 10.99-3.832 6.48-12.403-.84 3.558-3.21 4.156-3.856 4.254 1.782-2.365 1.388-2.55 1.185-4.71-.203-2.161-.78-2.786-1.59-5.15-.813-2.363-.745-1.35-.407-3.781.406 1.553 1.624 4.862 3.789 5.808-.744-1.148-1.759-4.457-.812-6.956 2.774.878 9.432 2.446 12.34.451-1.42 0-2.328-.18-4.898-1.261 3.044-1.418 5.073-2.837 6.697-7.429.552 1.152.78 2.782.541 4.93 1.569-2.148 1.948-4.195 2.3-6.753 2.079 2.255 3.096 6.459 1.243 9.913-2.013 3.753-5.167 2.85-7.602 8.658-2.435 5.808-2.097 9.522-2.097 9.522s-.068-6.348 7.17-10.13" fill="#5C667D" mask="url(#bb)"/>
            </g>
        </g>
        <g transform="translate(56 71)">
            <mask id="bd" fill="#fff">
                <use xlink:href="#bc"/>
            </mask>
            <path d="M3.603 6.593c0 3.99 4.35 7.566 10.155 7.566 5.806 0 9.987-3.406 10.21-7.49.217-3.985.619-9.426-5.187-9.426-5.805 0-15.178 5.36-15.178 9.35" fill="#B5BABC" mask="url(#bd)"/>
        </g>
        <g>
            <g transform="translate(3 3)">
                <mask id="bf" fill="#fff">
                    <use xlink:href="#be"/>
                </mask>
                <path d="M51.956 102.51c-3.66 3.054-4.917 6.676-2.117 13.037 2.799 6.36 10.697 7.924 14.536 6.367 3.84-1.557 6.36-8.684 2.64-15.033-5.355-9.139-12.585-6.437-15.06-4.372" fill="#5C667D" mask="url(#bf)"/>
            </g>
            <g transform="translate(3 3)">
                <mask id="bh" fill="#fff">
                    <use xlink:href="#bg"/>
                </mask>
                <path d="M48.807 109.813c0 4.45 3.368 8.058 7.521 8.058 4.154 0 7.521-3.608 7.521-8.058 0-4.45-3.367-8.057-7.52-8.057-4.154 0-7.522 3.607-7.522 8.057" fill="#B5BABC" mask="url(#bh)"/>
            </g>
            <g transform="translate(3 3)">
                <mask id="bj" fill="#fff">
                    <use xlink:href="#bi"/>
                </mask>
                <path d="M49.565 108.933c0 3.7 2.484 6.7 5.548 6.7s5.547-3 5.547-6.7-2.483-6.7-5.547-6.7c-3.064 0-5.548 3-5.548 6.7" fill="#FFF" mask="url(#bj)"/>
            </g>
        </g>
        <g>
            <g transform="translate(51 103)">
                <mask id="bl" fill="#fff">
                    <use xlink:href="#bk"/>
                </mask>
                <path d="M7.35 4.255s8.125-.719 18.064 7.006c12.015 9.34 5.378 10.66 5.378 10.66s-.704.122-9.53-9.343C16.295 7.25 7.35 4.255 7.35 4.255" fill="#05063A" mask="url(#bl)"/>
            </g>
            <g transform="translate(51 103)">
                <mask id="bn" fill="#fff">
                    <use xlink:href="#bm"/>
                </mask>
                <path d="M5.962 7.73s8.046 1.367 15.805 11.373c9.38 12.099 2.631 11.692 2.631 11.692s-.711-.06-6.97-11.469C13.901 12.901 5.961 7.73 5.961 7.73" fill="#05063A" mask="url(#bn)"/>
            </g>
            <g transform="translate(51 103)">
                <mask id="bp" fill="#fff">
                    <use xlink:href="#bo"/>
                </mask>
                <path d="M3.708 10.85s7.487 3.314 12.66 14.942c6.256 14.059-.198 11.997-.198 11.997s-.677-.234-4.065-12.853C10.197 17.83 3.708 10.85 3.708 10.85" fill="#05063A" mask="url(#bp)"/>
            </g>
        </g>
        <g>
            <g transform="translate(3 3)">
                <mask id="br" fill="#fff">
                    <use xlink:href="#bq"/>
                </mask>
                <path d="M58.7 75.662c3.618-1.15 6.44-2.936 7.474-3.65 1.033-.715 2.384-1.509 2.702-1.191.318.317-.198 1.587-1.272 2.5-1.073.912-2.106 2.46-8.904 2.341" fill="#EB5437" mask="url(#br)"/>
            </g>
            <g transform="translate(3 3)">
                <mask id="bt" fill="#fff">
                    <use xlink:href="#bs"/>
                </mask>
                <path d="M73.58 86.695c-6.632 8.658-4.493 15.003-3.45 20.8-2.825-3.247-3.518-4.795-8.321-5.808-4.804-1.013-3.716.689-8.713.045 2.403-1.33 10.99-3.832 6.48-12.403-.84 3.558-3.21 4.156-3.856 4.254 1.782-2.365 1.388-2.55 1.185-4.71-.203-2.161-.78-2.786-1.59-5.15-.813-2.363-.745-1.35-.407-3.781.406 1.553 1.624 4.862 3.789 5.808-.744-1.148-1.759-4.457-.812-6.956 2.774.878 9.432 2.446 12.34.451-1.42 0-2.328-.18-4.898-1.261 3.044-1.418 5.073-2.837 6.697-7.429.552 1.152.78 2.782.541 4.93 1.569-2.148 1.948-4.195 2.3-6.753 2.079 2.255 3.096 6.459 1.243 9.913-2.013 3.753-5.167 2.85-7.602 8.658-2.435 5.808-2.097 9.522-2.097 9.522s-.068-6.348 7.17-10.13" fill="#5C667D" mask="url(#bt)"/>
            </g>
        </g>
        <g>
            <g transform="translate(56 71)">
                <mask id="bv" fill="#fff">
                    <use xlink:href="#bu"/>
                </mask>
                <path d="M3.603 6.593c0 3.99 4.35 7.566 10.155 7.566 5.806 0 9.987-3.406 10.21-7.49.217-3.985.619-9.426-5.187-9.426-5.805 0-15.178 5.36-15.178 9.35" fill="#B5BABC" mask="url(#bv)"/>
            </g>
            <g transform="translate(56 71)">
                <mask id="bx" fill="#fff">
                    <use xlink:href="#bw"/>
                </mask>
                <path d="M17.169 17.636s-7.219 9.542-1.896 17.746c-1.11-5.185-.35-11.54 2.542-15.668 1.16-1.656-.646-2.078-.646-2.078" fill="#B5BABC" mask="url(#bx)"/>
            </g>
            <g transform="translate(56 71)">
                <mask id="bz" fill="#fff">
                    <use xlink:href="#by"/>
                </mask>
                <path d="M16.329 19.113s-4.813 7.07-2.241 12.76c-.35-3.852-.04-7.02 1.97-10.297.73-1.19.27-2.463.27-2.463" fill="#FFF" mask="url(#bz)"/>
            </g>
            <g transform="translate(56 71)">
                <mask id="bB" fill="#fff">
                    <use xlink:href="#bA"/>
                </mask>
                <path d="M23.025 1.834c.337 2.816.578 4.823-1.353 6.884.57-.294 2.2-1.256 2.271-3.737.07-2.48-.477-3.308-.477-3.308l-.441.16z" fill="#FFF" mask="url(#bB)"/>
            </g>
        </g>
        <g transform="translate(3 3)">
            <mask id="bD" fill="#fff">
                <use xlink:href="#bC"/>
            </mask>
            <path d="M44.5 96.365s4.649-.782 9.352-1.992c4.703-1.209 4.062-6.33 2.494-8.678-1.568-2.347-1.71-7.398-1.639-10.67.071-3.272-.387-4.827-1.924-5.62 2.859.107 3.278 2.134 6.057 2.419 2.78.284 5.131-1.352 8.195-3.486 3.065-2.134 6.386-2.599 7.483-2.774-5.082-7.815-13.876-10.539-21.236-10.67 4.093 1.851 5.421 3.249 5.986 4.055-5.698-2.132-12.043-1.565-12.043-1.565l-2.725 3.13-2.725-3.13s-6.346-.567-12.043 1.565c.564-.806 1.892-2.204 5.986-4.055-7.36.131-16.155 2.855-21.236 10.67 1.097.175 4.418.64 7.483 2.774 3.064 2.134 5.415 3.77 8.194 3.486 2.78-.285 3.199-2.312 6.057-2.419-1.537.793-1.995 2.348-1.924 5.62.072 3.272-.07 8.323-1.638 10.67-1.568 2.347-2.21 7.469 2.493 8.678 4.704 1.21 9.353 1.992 9.353 1.992" fill="#5C667D" mask="url(#bD)"/>
        </g>
        <g>
            <g transform="translate(17 58)">
                <mask id="bF" fill="#fff">
                    <use xlink:href="#bE"/>
                </mask>
                <path d="m30.173 42.911 16.33-1.88s-2.956-19.539-4.358-22.754c-1.403-3.215-3.694-3.93-3.694-3.93s1.59.072 4.846.121c3.256.05 5.16-.791 7.915-3.561s4.358-3.265 8.566-3.166c0 0-11.02-10.636-18.785-11.031-7.765-.396-10.82-.594-10.82-.594s-3.056.198-10.82.594C11.587-2.895.566 7.74.566 7.74c4.208-.098 5.811.397 8.566 3.167 2.755 2.77 4.659 3.61 7.915 3.561 3.256-.05 4.846-.121 4.846-.121s-2.291.715-3.694 3.93c-1.402 3.215-4.358 22.755-4.358 22.755l16.33 1.88z" fill="#B5BABC" mask="url(#bF)"/>
            </g>
            <g transform="translate(17 58)">
                <mask id="bH" fill="#fff">
                    <use xlink:href="#bG"/>
                </mask>
                <path d="M9.979 9.833s1.867 2.493 4.08 3.21c2.214.717 6.675.41 6.675.41s-3.942-.413-6.398-1.368C11.881 11.13 9.98 9.833 9.98 9.833" fill="#FFF" mask="url(#bH)"/>
            </g>
            <g transform="translate(17 58)">
                <mask id="bJ" fill="#fff">
                    <use xlink:href="#bI"/>
                </mask>
                <path d="M50.021 9.833s-1.867 2.493-4.08 3.21c-2.214.717-6.675.41-6.675.41s3.942-.413 6.398-1.368c2.455-.955 4.357-2.252 4.357-2.252" fill="#FFF" mask="url(#bJ)"/>
            </g>
            <g transform="translate(17 58)">
                <mask id="bL" fill="#fff">
                    <use xlink:href="#bK"/>
                </mask>
                <path d="m48.94-.673 7.552 6.937S51.672 1.682 30 1.682 3.507 6.264 3.507 6.264L11.06-.673h37.88z" fill="#FFF" mask="url(#bL)"/>
            </g>
            <g transform="translate(17 58)">
                <mask id="bN" fill="#fff">
                    <use xlink:href="#bM"/>
                </mask>
                <path d="m48.94-2.933 7.552 9.198S51.672.189 30 .189 3.507 6.265 3.507 6.265l7.553-9.198h37.88z" fill="#B5BABC" mask="url(#bN)"/>
            </g>
            <g transform="translate(17 58)">
                <mask id="bP" fill="#fff">
                    <use xlink:href="#bO"/>
                </mask>
                <path d="M30 12.886c2.655 0 6.612-1.204 8.566-2.468 1.954-1.264 5.811-2.046 7.414-1.986-.752-.963-4.258-1.505-6.963-.723-2.705.783-6.161 1.144-9.017 1.144-2.855 0-6.312-.361-9.017-1.144-2.705-.782-6.211-.24-6.963.723 1.603-.06 5.46.722 7.414 1.986 1.954 1.264 5.911 2.468 8.566 2.468" fill="#5C667D" mask="url(#bP)"/>
            </g>
            <g transform="translate(17 58)">
                <mask id="bR" fill="#fff">
                    <use xlink:href="#bQ"/>
                </mask>
                <path d="M30 11.897c2.655 0 6.612-.99 8.566-2.029 1.954-1.038 5.811-1.681 7.414-1.632-.752-.791-4.258-1.236-6.963-.594-2.705.644-6.161.94-9.017.94-2.855 0-6.312-.296-9.017-.94-2.705-.642-6.211-.197-6.963.594 1.603-.05 5.46.594 7.414 1.632 1.954 1.04 5.911 2.029 8.566 2.029" fill="#05063A" mask="url(#bR)"/>
            </g>
            <g transform="translate(17 58)">
                <mask id="bT" fill="#fff">
                    <use xlink:href="#bS"/>
                </mask>
                <path d="M22.536 18.524c-2.204 1.781-.848 5.67-.948 7.6-.1 1.93-1.476 3.11-1.726 5.238 1.743-2.723 2.678-2.693 2.93-4.94.301-2.671-1.103-4.807-.256-7.898" fill="#05063A" mask="url(#bT)"/>
            </g>
            <g transform="translate(17 58)">
                <mask id="bV" fill="#fff">
                    <use xlink:href="#bU"/>
                </mask>
                <path d="M37.464 18.524c2.204 1.781.848 5.67.948 7.6.1 1.93 1.476 3.11 1.726 5.238-1.743-2.723-2.678-2.693-2.93-4.94-.301-2.671 1.103-4.807.256-7.898" fill="#05063A" mask="url(#bV)"/>
            </g>
            <g transform="translate(17 58)">
                <mask id="bX" fill="#fff">
                    <use xlink:href="#bW"/>
                </mask>
                <path d="M30 40.982s8.666.99 11.214-2.732c2.547-3.722-.544-6.27-2.949-7.656-2.404-1.385-2.504-5.045-2.254-9.448.25-4.403-3.857-5.54-6.011-5.54s-6.262 1.137-6.011 5.54c.25 4.403.15 8.063-2.254 9.448-2.405 1.385-5.496 3.934-2.949 7.656C21.334 41.97 30 40.982 30 40.982" fill="#FFF" mask="url(#bX)"/>
            </g>
        </g>
        <g>
            <g transform="translate(3 3)">
                <mask id="bZ" fill="#fff">
                    <use xlink:href="#bY"/>
                </mask>
                <path d="M53.44 93.774s-1.536-.413-4.085.488c-2.548.902-3.356 1.015-4.855 1.015-1.5 0-2.307-.113-4.856-1.015-2.548-.901-4.084-.488-4.084-.488" stroke="#131445" stroke-width="12.125" stroke-linecap="round" mask="url(#bZ)"/>
            </g>
            <g transform="translate(3 3)">
                <mask id="cb" fill="#fff">
                    <use xlink:href="#ca"/>
                </mask>
                <path d="M44.5 95.802c-1.611 0-2.467-.137-5.031-1.045-2.335-.826-3.761-.479-3.776-.476a.528.528 0 0 1-.64-.374.523.523 0 0 1 .37-.64c.069-.018 1.725-.445 4.397.5 2.554.905 3.274.985 4.68.985 1.406 0 2.126-.08 4.68-.984 2.672-.946 4.328-.52 4.397-.501a.525.525 0 0 1-.27 1.014c-.023-.006-1.449-.348-3.776.476-2.565.908-3.42 1.045-5.031 1.045" fill="#EB5437" mask="url(#cb)"/>
            </g>
        </g>
        <g transform="translate(14 39)">
            <mask id="cd" fill="#fff">
                <use xlink:href="#cc"/>
            </mask>
            <path d="M33.5 4.753c-33.498 0-44.842 19.208-44.842 42.902 0 23.694 20.076 42.902 44.842 42.902s44.842-19.208 44.842-42.902c0-23.694-11.344-42.902-44.842-42.902m47.11 52.55c0 23.924-21.091 43.317-47.11 43.317s-47.11-19.393-47.11-43.317c0-23.923 15.79-43.316 47.11-43.316S80.61 33.38 80.61 57.303" fill="#FBC333" mask="url(#cd)"/>
        </g>
        <g>
            <g transform="translate(14 44)">
                <mask id="cf" fill="#fff">
                    <use xlink:href="#ce"/>
                </mask>
                <path d="M22.951.726s-5.149-.741-12.623 2.316C2.853 6.1 3.27 8.342 3.27 8.342s-1.098 5.018-.007 5.45c2.594-3.443 7.46-6.736 16.133-7.665-2.357-.505-6.199-.173-9.996.979 5.847-3.83 14.165-3.664 14.165-3.664L22.951.726z" fill="#FEE749" mask="url(#cf)"/>
            </g>
            <g transform="translate(14 44)">
                <mask id="ch" fill="#fff">
                    <use xlink:href="#cg"/>
                </mask>
                <path d="M10.946 11.907C15.654 8.615 24.953 6.74 24.953 6.74l-.29 1.675s-4.454-.311-13.717 3.492" fill="#FEE749" mask="url(#ch)"/>
            </g>
            <g transform="translate(14 44)">
                <mask id="cj" fill="#fff">
                    <use xlink:href="#ci"/>
                </mask>
                <path d="m23.556 3.526-1.394 6.997-2.443.315c4.374-1.312 3.401-10.534-1.794-9.08C20.05.538 20.401-.16 22.691-.3l.865 3.826z" fill="#E3A500" mask="url(#cj)"/>
            </g>
            <g transform="translate(14 44)">
                <mask id="cl" fill="#fff">
                    <use xlink:href="#ck"/>
                </mask>
                <path d="M44.049.726s5.149-.741 12.623 2.316c7.474 3.058 7.057 5.3 7.057 5.3s1.099 5.018.007 5.45c-2.593-3.443-7.46-6.736-16.132-7.665 2.356-.505 6.198-.173 9.996.979-5.847-3.83-14.166-3.664-14.166-3.664L44.05.726z" fill="#FEE749" mask="url(#cl)"/>
            </g>
            <g transform="translate(14 44)">
                <mask id="cn" fill="#fff">
                    <use xlink:href="#cm"/>
                </mask>
                <path d="M56.054 11.907C51.346 8.615 42.047 6.74 42.047 6.74l.29 1.675s4.454-.311 13.717 3.492" fill="#FEE749" mask="url(#cn)"/>
            </g>
            <g transform="translate(14 44)">
                <mask id="cp" fill="#fff">
                    <use xlink:href="#co"/>
                </mask>
                <path d="m43.444 3.526 1.394 6.997 2.443.315c-4.374-1.312-3.402-10.534 1.794-9.08C46.95.538 46.598-.16 44.309-.3l-.865 3.826z" fill="#E3A500" mask="url(#cp)"/>
            </g>
        </g>
        <g>
            <path fill="#FBC333" d="m47 34.123 5.008 4.668 6.557 1.992-1.55 6.66 1.55 6.66-6.557 1.99L47 60.763l-5.008-4.668-6.557-1.992 1.55-6.66-1.55-6.66 6.557-1.991z"/>
            <path fill="#FBC333" d="m42.203 55.73-6.28-1.908 1.484-6.38-1.485-6.379 6.281-1.908L47 34.684l4.797 4.471 6.28 1.908-1.483 6.38 1.484 6.379-6.281 1.907L47 60.201z"/>
            <path fill="#FAB911" d="M42.754 53.795V41.048L47 37.968l4.246 3.08v12.747L47 56.875z"/>
            <path fill="#FEE749" d="M42.754 53.795V41.048L47 37.968v18.906z"/>
            <path fill="#021324" d="M50.835 53.586v-12.33L47 38.477l-3.835 2.78v12.33L47 56.367z"/>
            <path fill="#C22516" d="M44.193 53.064V41.779L47 39.743l2.807 2.036v11.285L47 55.1z"/>
            <path fill="#B31D0F" d="M44.193 53.064V41.779L47 39.743V55.1z"/>
            <path fill="#EB5437" d="M45.22 52.542V42.3L47 41.01l1.78 1.29v10.242L47 53.833z"/>
            <path fill="#FBC333" d="m7 46.766 9-1.055 1.3 11.75-3.556 6.21z"/>
            <path fill="#F4A898" d="m47 39.742-2.807 2.036 1.027.523L47 41.01l1.78 1.29 1.027-.521z"/>
            <path fill="#A35242" d="M47 39.742v1.268l-1.78 1.29-1.027-.522z"/>
            <path fill="#FAB911" d="M45.953 7.215 47 4l1.047 3.215L47 8.655z"/>
            <path fill="#FAB911" d="m47 4.497-.876 2.69L47 8.394l.876-1.205z"/>
            <path fill="#FAB911" d="M42.811 7.035h3.39l1.049 1.439-1.697.548z"/>
            <path fill="#FAB911" d="m43.286 7.189 2.294 1.663 1.42-.46-.878-1.203z"/>
            <path fill="#FAB911" d="m45.459 8.732 1.695-.551-.001 1.779-2.742 1.987z"/>
            <path fill="#FAB911" d="M44.704 11.544 47 9.882 47 8.392l-1.42.462z"/>
            <path fill="#FAB911" d="m46.75 8.474 1.05-1.439h3.389l-2.742 1.987z"/>
            <path fill="#FAB911" d="M50.714 7.189h-2.836L47 8.393l1.42.459z"/>
            <path fill="#FAB911" d="m46.847 9.96-.001-1.78 1.696.552 1.046 3.215z"/>
            <path fill="#FAB911" d="m47 8.393.001 1.488 2.295 1.663-.877-2.69z"/>
            <path fill="#FFEF80" d="M47 8.393V4.498l.876 2.69zM47 8.393l-3.714-1.204h2.836z"/>
            <path fill="#FEE749" d="m47 8.393-2.296 3.151.877-2.69z"/>
            <path fill="#FAB911" d="m47 8.393 2.296 3.151L47 9.881zM47 8.393l3.714-1.204-2.294 1.663zM47 8.393V4.498l-.876 2.69z"/>
            <path fill="#FEE749" d="m47 8.393 3.714-1.204h-2.836zM47 8.393l2.296 3.151-.877-2.69z"/>
            <path d="m47 8.393-.001 1.488-2.295 1.663L47 8.393zm-3.714-1.204L47 8.393l-1.42.459-2.294-1.663zM55.438 7.706l.815-2.501.814 2.5-.814 1.121z" fill="#FAB911"/>
            <path fill="#FAB911" d="m56.253 5.592-.682 2.093.682.937.681-.937z"/>
            <path fill="#FAB911" d="M52.994 7.566h2.636l.817 1.12-1.32.426z"/>
            <path fill="#FAB911" d="m53.363 7.686 1.785 1.293 1.105-.356-.684-.937z"/>
            <path fill="#FAB911" d="m55.053 8.886 1.32-.428-.001 1.384-2.134 1.546z"/>
            <path fill="#FAB911" d="m54.467 11.074 1.785-1.293V8.623l-1.104.358z"/>
            <path fill="#FAB911" d="m56.058 8.685.817-1.119h2.636l-2.133 1.546z"/>
            <path fill="#FAB911" d="M59.142 7.686h-2.206l-.683.937 1.104.356z"/>
            <path fill="#FAB911" d="m56.134 9.842-.001-1.384 1.319.428.814 2.501z"/>
            <path fill="#FAB911" d="M56.253 8.622v1.159l1.786 1.293-.682-2.093z"/>
            <path fill="#FFEF80" d="M56.253 8.622v-3.03l.681 2.093zM56.253 8.622l-2.89-.936h2.206z"/>
            <path fill="#FEE749" d="m56.253 8.622-1.787 2.452.683-2.093z"/>
            <path fill="#FAB911" d="m56.253 8.622 1.786 2.452-1.786-1.293zM56.253 8.622l2.89-.936-1.786 1.294zM56.253 8.622v-3.03l-.682 2.093z"/>
            <path fill="#FEE749" d="m56.253 8.622 2.89-.936h-2.207zM56.253 8.622l1.786 2.452-.682-2.093z"/>
            <path fill="#FAB911" d="m56.253 8.622-1.787 2.452 1.786-1.293zM56.253 8.622l-2.89-.936 1.785 1.294zM63.76 8.828l.815-2.5.815 2.5-.815 1.12z"/>
            <path fill="#FAB911" d="m64.575 6.714-.681 2.093.681.938.682-.938z"/>
            <path fill="#FAB911" d="M61.317 8.689h2.636l.817 1.119-1.32.427z"/>
            <path fill="#FAB911" d="m61.686 8.808 1.785 1.294 1.104-.357-.683-.937z"/>
            <path fill="#FAB911" d="m63.376 10.009 1.32-.43-.002 1.385-2.133 1.546z"/>
            <path fill="#FAB911" d="m62.79 12.197 1.784-1.294.002-1.158-1.105.359z"/>
            <path fill="#FAB911" d="m64.381 9.808.817-1.12h2.636l-2.133 1.546z"/>
            <path fill="#FAB911" d="M67.465 8.808H65.26l-.684.937 1.105.357z"/>
            <path fill="#FAB911" d="M64.456 10.964V9.58l1.319.429.814 2.5z"/>
            <path fill="#FAB911" d="m64.575 9.745.001 1.158 1.785 1.294-.682-2.094z"/>
            <path fill="#FFEF80" d="M64.575 9.745v-3.03l.682 2.093zM64.575 9.745l-2.89-.937h2.207z"/>
            <path fill="#FEE749" d="m64.575 9.745-1.786 2.452.682-2.093z"/>
            <path fill="#FAB911" d="m64.575 9.745 1.786 2.452-1.785-1.294zM64.575 9.745l2.89-.937-1.785 1.294zM64.575 9.745v-3.03l-.681 2.093z"/>
            <path fill="#FEE749" d="m64.575 9.745 2.89-.937H65.26zM64.575 9.745l1.786 2.452-.682-2.093z"/>
            <path fill="#FAB911" d="m64.575 9.745-1.786 2.452 1.786-1.294zM64.575 9.745l-2.89-.937 1.786 1.294zM38.562 7.706l-.815-2.501-.814 2.5.814 1.121z"/>
            <path fill="#FAB911" d="m37.747 5.592.682 2.093-.682.937-.681-.937z"/>
            <path fill="#FAB911" d="M41.006 7.566H38.37l-.817 1.12 1.32.426z"/>
            <path fill="#FAB911" d="m40.637 7.686-1.785 1.293-1.105-.356.684-.937z"/>
            <path fill="#FAB911" d="m38.947 8.886-1.32-.428.001 1.384 2.134 1.546z"/>
            <path fill="#FAB911" d="m39.533 11.074-1.785-1.293V8.623l1.104.358z"/>
            <path fill="#FAB911" d="m37.942 8.685-.817-1.119H34.49l2.133 1.546z"/>
            <path fill="#FAB911" d="M34.858 7.686h2.206l.683.937-1.104.356z"/>
            <path fill="#FAB911" d="m37.866 9.842.001-1.384-1.319.428-.814 2.501z"/>
            <path fill="#FAB911" d="M37.747 8.622v1.159l-1.786 1.293.682-2.093z"/>
            <path fill="#FFEF80" d="M37.747 8.622v-3.03l-.681 2.093zM37.747 8.622l2.89-.936h-2.206z"/>
            <path fill="#FEE749" d="m37.747 8.622 1.787 2.452-.683-2.093z"/>
            <path fill="#FAB911" d="m37.747 8.622-1.786 2.452 1.786-1.293zM37.747 8.622l-2.89-.936 1.786 1.294zM37.747 8.622v-3.03l.682 2.093z"/>
            <path fill="#FEE749" d="m37.747 8.622-2.89-.936h2.207zM37.747 8.622l-1.786 2.452.682-2.093z"/>
            <path fill="#FAB911" d="m37.747 8.622 1.787 2.452-1.786-1.293zM37.747 8.622l2.89-.936-1.785 1.294zM30.24 8.828l-.815-2.5-.815 2.5.815 1.12z"/>
            <path fill="#FAB911" d="m29.425 6.714.681 2.093-.681.938-.682-.938z"/>
            <path fill="#FAB911" d="M32.683 8.689h-2.636l-.817 1.119 1.32.427z"/>
            <path fill="#FAB911" d="m32.314 8.808-1.785 1.294-1.104-.357.683-.937z"/>
            <path fill="#FAB911" d="m30.624 10.009-1.32-.43.002 1.385 2.133 1.546z"/>
            <path fill="#FAB911" d="m31.21 12.197-1.784-1.294-.001-1.158 1.104.359z"/>
            <path fill="#FAB911" d="m29.619 9.808-.816-1.12h-2.637l2.133 1.546z"/>
            <path fill="#FAB911" d="M26.535 8.808h2.206l.684.937-1.105.357z"/>
            <path fill="#FAB911" d="M29.544 10.964V9.58l-1.319.429-.814 2.5z"/>
            <path fill="#FAB911" d="m29.425 9.745-.001 1.158-1.785 1.294.682-2.094z"/>
            <path fill="#FFEF80" d="M29.425 9.745v-3.03l-.682 2.093zM29.425 9.745l2.89-.937h-2.207z"/>
            <path fill="#FEE749" d="m29.425 9.745 1.786 2.452-.682-2.093z"/>
            <path fill="#FAB911" d="m29.425 9.745-1.786 2.452 1.785-1.294zM29.425 9.745l-2.89-.937 1.785 1.294zM29.425 9.745v-3.03l.681 2.093z"/>
            <path fill="#FEE749" d="m29.425 9.745-2.89-.937h2.206zM29.425 9.745l-1.786 2.452.682-2.093z"/>
            <path fill="#FAB911" d="m29.425 9.745 1.786 2.452-1.786-1.294zM29.425 9.745l2.89-.937-1.786 1.294z"/>
            <path fill="#E3A500" d="M47 37.969v.507l3.835 2.781.41-.209z"/>
            <path fill="#FAB911" d="M47 34.123v.56l4.797 4.472.21-.364z"/>
            <path fill="#FEE749" d="m47 37.969 4.246 3.079.55-1.892L47 34.684z"/>
            <path fill="#FAB911" d="m47 34.684-4.796 4.471.55 1.893L47 37.968z"/>
            <path fill="#E3A500" d="M47 60.762v-.56l4.797-4.472.21.364z"/>
            <path fill="#FBC333" d="m47 56.916 4.246-3.079.55 1.892L47 60.201z"/>
            <path fill="#E3A500" d="m47 60.201-4.796-4.471.55-1.893L47 56.917z"/>
            <path fill="#FEE749" d="m52.008 38.791-.211.365 6.28 1.907.488-.28zM41.992 38.791l.211.365-6.28 1.907-.488-.28zM7 46.766s3.846.742 6.86 6.314c.635-1.545.838-2.95.525-4.436 1.49 3.306 1.53 6.316 1.75 9.386.492-.635 1.086-1.285 1.086-1.285l-1.22-11.034L7 46.766z"/>
            <path d="m7 46.766 6.744 16.904s.145-5.325-1.594-9.833C10.41 49.329 7 46.766 7 46.766M16 45.711l-.665.922 1.373 5.478z" fill="#E3A500"/>
            <path fill="#FAB911" d="m7 46.766 9-1.055-.665.921z"/>
            <path fill="#FBC333" d="m87 46.766-9-1.055-1.3 11.75 3.556 6.21z"/>
            <path d="M87 46.766s-3.846.742-6.86 6.314c-.635-1.545-.838-2.95-.525-4.436-1.49 3.306-1.53 6.316-1.75 9.386-.492-.635-1.086-1.285-1.086-1.285l1.22-11.034L87 46.766z" fill="#FEE749"/>
            <path d="M87 46.766 80.256 63.67s-.145-5.325 1.594-9.833c1.74-4.508 5.15-7.071 5.15-7.071M78 45.711l.665.922-1.374 5.478z" fill="#E3A500"/>
            <path fill="#FAB911" d="m87 46.766-9-1.055.665.921z"/>
            <path d="m51.797 55.73 6.28-1.908-1.484-6.38c.323 2.257.457 3.288.282 4.264-.653-1.462-1.938-1.877-3.109-1.52 2.238 1.4 2.025 3.945-1.97 5.544M42.203 55.73l-6.28-1.908 1.484-6.38c-.323 2.257-.457 3.288-.282 4.264.653-1.462 1.938-1.877 3.109-1.52-2.238 1.4-2.025 3.945 1.97 5.544" fill="#FEE749"/>
            <path d="m51.797 39.155 6.28 1.908-1.484 6.38c.323-2.257.457-3.288.282-4.264-.653 1.461-1.938 1.876-3.109 1.52 2.238-1.4 2.025-3.945-1.97-5.544M42.203 39.155l-6.28 1.908 1.484 6.38c-.323-2.257-.457-3.288-.282-4.264.653 1.461 1.938 1.876 3.109 1.52-2.238-1.4-2.025-3.945 1.97-5.544" fill="#FAB911"/>
            <path d="M53.09 149.327s-2.272-1.031-6.09-1.031c-3.82 0-6.09 1.031-6.09 1.031-.378.17-.42 1.895 0 1.649 0 0 2.27-.893 6.09-.893 3.818 0 6.09.893 6.09.893.338.146.457-1.459 0-1.649" fill="#FBC333"/>
        </g>
        <g>
            <g transform="translate(41 148)">
                <mask id="cr" fill="#fff">
                    <use xlink:href="#cq"/>
                </mask>
                <path d="M6.5 2.088c3.847 0 6.135.874 6.135.874s.046.016.098.094c.052.077-.351.081-.351.081s.767.098.826.053c.058-.045-.272-1.95-.272-1.95s-.314-.29-.193-.086c.12.203.115.49.11 1.041-.004.551-.218.396-.218.396s-2.288-1.213-6.136-1.213C2.652 1.378.364 2.591.364 2.591s-.214.155-.218-.396c-.005-.551-.01-.838.11-1.041.12-.204-.194.085-.194.085s-.33 1.906-.271 1.951c.059.045.826-.053.826-.053s-.403-.004-.351-.081c.052-.078.098-.094.098-.094s2.288-.874 6.135-.874z" fill="#E3A500" mask="url(#cr)"/>
            </g>
            <g transform="translate(41 148)">
                <mask id="ct" fill="#fff">
                    <use xlink:href="#cs"/>
                </mask>
                <path d="M12.696 1.463S10.386.149 6.5.149C2.616.15.305 1.463.305 1.463c-.383.215-.436.454.001.238 0 0 2.31-1.138 6.195-1.138 3.885 0 6.196 1.138 6.196 1.138.343.186.464.004-.001-.238" fill="#FEE749" mask="url(#ct)"/>
            </g>
        </g>
    </g>
</svg>
